<?xml version="1.0" encoding="UTF-8"?>
<svg xmlns="http://www.w3.org/2000/svg" xmlns:xlink="http://www.w3.org/1999/xlink" width="375pt" height="374.999991pt" viewBox="0 0 375 374.999991" version="1.2">
<defs>
<clipPath id="clip1">
  <path d="M 27.121094 40.238281 L 348.546875 40.238281 L 348.546875 334.988281 L 27.121094 334.988281 Z M 27.121094 40.238281 "/>
</clipPath>
</defs>
<g id="surface1">
<rect x="0" y="0" width="375" height="374.999991" style="fill:rgb(100%,100%,100%);fill-opacity:1;stroke:none;"/>
<rect x="0" y="0" width="375" height="374.999991" style="fill:rgb(100%,100%,100%);fill-opacity:1;stroke:none;"/>
<rect x="0" y="0" width="375" height="374.999991" style="fill:rgb(87.449646%,60.778809%,60.778809%);fill-opacity:1;stroke:none;"/>
<path style=" stroke:none;fill-rule:nonzero;fill:rgb(77.249146%,54.899597%,21.958923%);fill-opacity:1;" d="M 303.195312 329.734375 C 294.902344 331.605469 286.378906 332.453125 277.878906 332.253906 C 275.628906 332.203125 273.871094 330.296875 273.96875 328.050781 C 274.691406 310.667969 272.382812 293.273438 270.078125 276.007812 C 268.660156 265.40625 267.246094 254.8125 265.832031 244.214844 C 263.828125 229.195312 261.820312 214.167969 258.957031 199.289062 C 257.503906 191.730469 255.808594 184.15625 252.734375 177.105469 C 249.777344 170.328125 245.59375 164.140625 240.957031 158.375 C 234.554688 150.425781 227.109375 143.097656 218.054688 138.378906 C 202.269531 130.152344 182.734375 130.800781 166.398438 137.871094 C 150.066406 144.945312 136.765625 157.894531 126.980469 172.753906 C 120.066406 183.257812 114.742188 194.800781 111.246094 206.878906 C 99.746094 246.625 108.410156 289.609375 100.933594 330.253906 C 100.566406 332.253906 98.769531 333.675781 96.738281 333.570312 L 74.316406 332.398438 C 72.253906 332.289062 70.605469 330.648438 70.492188 328.585938 C 68.261719 287.863281 65.546875 244.960938 74.738281 205.363281 C 84.515625 163.25 108.214844 122.792969 145.542969 100.9375 C 150.851562 97.832031 156.410156 95.109375 162.269531 93.238281 C 170.050781 90.75 178.246094 89.796875 186.40625 89.34375 C 198.515625 88.667969 210.671875 89.023438 222.714844 90.433594 C 230.410156 91.335938 238.117188 92.761719 245.167969 95.945312 C 254.113281 99.988281 261.621094 106.699219 268.054688 114.113281 C 275.394531 122.578125 281.527344 132.09375 286.207031 142.273438 C 293.628906 158.425781 297.3125 175.996094 300.902344 193.40625 C 309.886719 236.949219 312.332031 282.273438 306.339844 326.332031 C 306.109375 328.011719 304.847656 329.359375 303.195312 329.734375 "/>
<path style=" stroke:none;fill-rule:nonzero;fill:rgb(97.648621%,83.529663%,80.778503%);fill-opacity:1;" d="M 249.8125 328.023438 C 253.191406 328.09375 255.792969 325.09375 255.269531 321.757812 C 247.878906 274.625 251.589844 225.519531 236.820312 180.164062 C 234.421875 172.8125 231.410156 165.386719 225.886719 159.976562 C 218.421875 152.660156 207.429688 150.113281 196.972656 149.910156 C 183.03125 149.640625 168.75 153.175781 157.582031 161.515625 C 152.324219 165.441406 147.851562 170.332031 143.9375 175.59375 C 124.070312 202.292969 119.074219 236.902344 115.304688 269.960938 C 113.125 289.101562 111.140625 308.277344 110.210938 327.519531 C 110.0625 330.613281 112.515625 333.203125 115.617188 333.222656 C 122.699219 333.265625 129.597656 333.539062 136.6875 333.574219 C 139.671875 333.59375 142.085938 331.183594 142.132812 328.203125 C 142.597656 297.089844 146.097656 266.074219 150.730469 235.300781 C 152.511719 223.457031 154.664062 211.144531 161.757812 201.492188 C 167.925781 193.109375 177.652344 187.429688 187.984375 186.179688 C 192.167969 185.675781 196.613281 185.921875 200.261719 188.019531 C 204.191406 190.285156 206.675781 194.382812 208.695312 198.441406 C 210.898438 202.878906 212.75 207.488281 214.230469 212.214844 C 217.03125 221.132812 218.484375 230.40625 219.933594 239.644531 C 220.863281 245.574219 221.796875 251.507812 222.726562 257.4375 C 226.117188 279.074219 229.519531 300.875 229.1875 322.742188 C 229.140625 325.867188 231.695312 328.402344 234.820312 328.277344 C 239.75 328.082031 244.871094 327.917969 249.8125 328.023438 "/>
<g clip-path="url(#clip1)" clip-rule="nonzero">
<path style=" stroke:none;fill-rule:nonzero;fill:rgb(83.918762%,89.019775%,86.669922%);fill-opacity:1;" d="M 94.285156 75.773438 C 85.378906 82.152344 77.332031 89.820312 70.675781 98.515625 C 63.800781 107.5 59.050781 117.914062 54.816406 128.402344 C 28.957031 192.484375 21.445312 263.867188 31.277344 332.265625 C 40.53125 331.527344 50 331.203125 59.210938 332.320312 C 59.183594 313.890625 59.289062 295.464844 59.519531 277.039062 C 60.03125 237.054688 61.425781 195.835938 77.882812 159.386719 C 84.21875 145.339844 92.253906 132.082031 101.058594 119.429688 C 110.207031 106.292969 134.230469 87.703125 143.226562 84.070312 C 161.667969 76.621094 180.914062 70.503906 200.773438 69.386719 C 220.628906 68.273438 241.277344 72.519531 257.359375 84.210938 C 275.242188 97.214844 294.496094 120.742188 301.664062 141.648438 C 316.496094 184.917969 320.574219 223.722656 319.773438 275.496094 C 319.488281 293.921875 318.800781 313.921875 319.871094 332.320312 C 326.117188 334.515625 333 334.976562 339.621094 335.179688 C 341.558594 335.238281 343.636719 335.167969 345.214844 334.050781 C 347.679688 332.300781 347.949219 328.8125 347.988281 325.792969 C 348.085938 318.078125 348.179688 310.367188 348.277344 302.65625 C 348.847656 257.636719 349.390625 212.328125 341.855469 167.9375 C 337.378906 141.546875 329.878906 115.238281 315.59375 92.59375 C 301.308594 69.945312 279.609375 51.152344 253.683594 44.414062 C 242.617188 41.535156 231.105469 40.890625 219.679688 40.390625 C 202.113281 39.628906 143.734375 40.378906 94.285156 75.773438 "/>
</g>
</g>
</svg>
