<?xml version="1.0" encoding="UTF-8"?>
<svg xmlns="http://www.w3.org/2000/svg" xmlns:xlink="http://www.w3.org/1999/xlink" width="375pt" height="374.999991pt" viewBox="0 0 375 374.999991" version="1.2">
<defs>
<clipPath id="clip1">
  <path d="M 139.984375 122.957031 L 235.117188 122.957031 L 235.117188 193.574219 L 139.984375 193.574219 Z M 139.984375 122.957031 "/>
</clipPath>
<clipPath id="clip2">
  <path d="M 245 94 L 285 94 L 285 247.480469 L 245 247.480469 Z M 245 94 "/>
</clipPath>
<clipPath id="clip3">
  <path d="M 187.5 82 L 194 82 L 194 89 L 187.5 89 Z M 187.5 82 "/>
</clipPath>
<clipPath id="clip4">
  <path d="M 293 151 L 317.847656 151 L 317.847656 172 L 293 172 Z M 293 151 "/>
</clipPath>
<clipPath id="clip5">
  <path d="M 297 151 L 317.847656 151 L 317.847656 165 L 297 165 Z M 297 151 "/>
</clipPath>
<clipPath id="clip6">
  <path d="M 37.5625 63.015625 L 165.671875 63.015625 L 165.671875 210 L 37.5625 210 Z M 37.5625 63.015625 "/>
</clipPath>
</defs>
<g id="surface1">
<rect x="0" y="0" width="375" height="374.999991" style="fill:rgb(100%,100%,100%);fill-opacity:1;stroke:none;"/>
<rect x="0" y="0" width="375" height="374.999991" style="fill:rgb(100%,100%,100%);fill-opacity:1;stroke:none;"/>
<rect x="0" y="0" width="375" height="374.999991" style="fill:rgb(100%,96.859741%,76.858521%);fill-opacity:1;stroke:none;"/>
<g clip-path="url(#clip1)" clip-rule="nonzero">
<path style=" stroke:none;fill-rule:nonzero;fill:rgb(91.758728%,59.609985%,56.079102%);fill-opacity:1;" d="M 165.035156 188.839844 C 163.503906 171.136719 157.535156 155.507812 144.777344 142.578125 C 142.550781 140.324219 137.828125 137.359375 141.113281 132.433594 C 143.996094 128.105469 148.054688 126.390625 153.179688 127.097656 C 153.839844 127.191406 154.601562 127.003906 155.167969 127.269531 C 164.988281 131.839844 173.761719 137.378906 183.5625 125.027344 C 187.96875 119.472656 195.527344 126.257812 198.765625 131.625 C 201.757812 136.582031 204.214844 136.589844 209.082031 134.816406 C 222.101562 130.070312 230.199219 133.183594 234.125 143.128906 C 235.886719 147.597656 235.578125 150.695312 230.945312 153.019531 C 216.574219 160.226562 209.382812 173.195312 203.757812 187.367188 C 203.195312 187.058594 202.367188 186.335938 202.117188 186.5 C 196.71875 190.039062 191.972656 199.214844 184.996094 188.257812 C 184.851562 188.027344 182.980469 188.460938 182.339844 189.046875 C 176.464844 194.421875 170.769531 191.121094 165.035156 188.839844 "/>
</g>
<path style=" stroke:none;fill-rule:nonzero;fill:rgb(50.19989%,67.83905%,59.21936%);fill-opacity:1;" d="M 182.703125 324.304688 C 178.863281 330.011719 179.664062 324.273438 179.40625 322.816406 C 177.992188 314.835938 183.015625 223.773438 178.332031 216.1875 C 173.246094 207.574219 165.945312 203.097656 164.101562 193.007812 C 163.792969 191.328125 162.945312 189.855469 165.027344 188.839844 C 170.769531 191.121094 176.464844 194.421875 182.339844 189.046875 C 182.980469 188.460938 184.851562 188.027344 184.996094 188.257812 C 191.972656 199.214844 196.71875 190.039062 202.117188 186.5 C 202.367188 186.335938 203.195312 187.058594 203.757812 187.367188 C 201.257812 196.9375 197.085938 205.917969 189.472656 212.152344 C 179.582031 220.253906 187.550781 305.5625 186.144531 319.335938 C 185.976562 320.996094 182.511719 322.648438 182.703125 324.304688 "/>
<path style=" stroke:none;fill-rule:nonzero;fill:rgb(46.669006%,60.389709%,50.19989%);fill-opacity:1;" d="M 265.09375 143.039062 C 257.609375 147.820312 256.625 154.445312 256.625 154.445312 C 256.625 154.445312 262.582031 157.472656 270.796875 154.101562 C 277.960938 151.167969 275.390625 144.707031 275.390625 144.707031 C 275.390625 144.707031 271.625 138.871094 265.09375 143.039062 "/>
<path style=" stroke:none;fill-rule:nonzero;fill:rgb(30.198669%,22.349548%,17.248535%);fill-opacity:1;" d="M 256.625 154.445312 C 258.148438 153.554688 259.683594 152.691406 261.238281 151.851562 C 262.785156 151.007812 264.34375 150.191406 265.902344 149.371094 C 267.472656 148.566406 269.039062 147.761719 270.617188 146.980469 C 272.199219 146.199219 273.789062 145.441406 275.390625 144.707031 C 273.871094 145.597656 272.332031 146.460938 270.78125 147.300781 C 269.234375 148.144531 267.675781 148.964844 266.113281 149.78125 C 264.550781 150.585938 262.980469 151.390625 261.398438 152.167969 C 259.820312 152.953125 258.230469 153.714844 256.625 154.445312 "/>
<path style=" stroke:none;fill-rule:nonzero;fill:rgb(30.198669%,22.349548%,17.248535%);fill-opacity:1;" d="M 261.515625 154.394531 C 261.945312 153.867188 262.324219 153.3125 262.617188 152.722656 C 262.910156 152.132812 263.113281 151.503906 263.121094 150.871094 L 263.355469 151.101562 C 262.941406 151.125 262.539062 151.101562 262.132812 151.035156 C 261.925781 151 261.722656 150.949219 261.519531 150.867188 C 261.417969 150.828125 261.320312 150.78125 261.222656 150.71875 C 261.117188 150.648438 261.050781 150.589844 260.988281 150.554688 C 260.6875 150.382812 260.296875 150.292969 259.921875 150.222656 C 259.535156 150.152344 259.144531 150.101562 258.75 150.070312 C 259.140625 149.992188 259.542969 149.972656 259.945312 149.984375 C 260.347656 150.003906 260.753906 150.035156 261.164062 150.21875 C 261.273438 150.269531 261.363281 150.339844 261.425781 150.378906 C 261.5 150.414062 261.578125 150.449219 261.664062 150.476562 C 261.832031 150.535156 262.015625 150.570312 262.199219 150.597656 C 262.570312 150.652344 262.960938 150.660156 263.332031 150.652344 L 263.578125 150.648438 L 263.570312 150.882812 C 263.550781 151.609375 263.285156 152.300781 262.910156 152.886719 C 262.730469 153.183594 262.511719 153.457031 262.277344 153.710938 C 262.046875 153.960938 261.792969 154.195312 261.515625 154.394531 "/>
<path style=" stroke:none;fill-rule:nonzero;fill:rgb(30.198669%,22.349548%,17.248535%);fill-opacity:1;" d="M 271.949219 150.328125 C 271.773438 149.96875 271.699219 149.566406 271.671875 149.160156 C 271.648438 148.757812 271.683594 148.347656 271.773438 147.949219 C 271.945312 147.148438 272.320312 146.402344 272.792969 145.746094 L 273.011719 146.101562 C 272.75 146.144531 272.519531 146.144531 272.273438 146.109375 C 272.035156 146.078125 271.796875 146.015625 271.570312 145.914062 C 271.34375 145.820312 271.128906 145.683594 270.949219 145.515625 C 270.855469 145.429688 270.777344 145.335938 270.699219 145.238281 C 270.621094 145.144531 270.558594 145.035156 270.503906 144.949219 C 270.28125 144.597656 269.980469 144.28125 269.59375 144.125 C 269.210938 143.957031 268.757812 144.003906 268.328125 144.144531 C 268.523438 144.03125 268.730469 143.925781 268.957031 143.878906 C 269.1875 143.828125 269.4375 143.828125 269.671875 143.890625 C 270.148438 144.011719 270.53125 144.355469 270.816406 144.730469 C 270.890625 144.824219 270.945312 144.910156 271.011719 144.984375 C 271.078125 145.0625 271.148438 145.136719 271.226562 145.199219 C 271.378906 145.328125 271.554688 145.433594 271.742188 145.507812 C 272.109375 145.664062 272.550781 145.703125 272.933594 145.65625 L 273.457031 145.597656 L 273.152344 146.011719 C 272.699219 146.628906 272.328125 147.304688 272.097656 148.035156 C 271.988281 148.402344 271.90625 148.777344 271.878906 149.164062 C 271.851562 149.550781 271.859375 149.941406 271.949219 150.328125 "/>
<path style=" stroke:none;fill-rule:nonzero;fill:rgb(30.198669%,22.349548%,17.248535%);fill-opacity:1;" d="M 263.191406 145.828125 C 263.4375 146.292969 263.835938 146.640625 264.257812 146.917969 C 264.6875 147.191406 265.160156 147.386719 265.648438 147.539062 C 266.136719 147.679688 266.640625 147.777344 267.144531 147.839844 C 267.652344 147.894531 268.164062 147.929688 268.679688 147.933594 L 268.988281 147.933594 L 268.882812 148.242188 C 268.714844 148.722656 268.605469 149.277344 268.546875 149.8125 C 268.484375 150.355469 268.464844 150.890625 268.476562 151.457031 C 268.457031 152.050781 268.269531 152.636719 267.921875 153.105469 C 267.585938 153.578125 267.117188 153.929688 266.617188 154.179688 C 267.058594 153.835938 267.457031 153.445312 267.71875 152.972656 C 267.980469 152.507812 268.109375 151.980469 268.089844 151.460938 C 268.0625 150.914062 268.042969 150.328125 268.109375 149.765625 C 268.167969 149.195312 268.253906 148.640625 268.464844 148.070312 L 268.671875 148.382812 C 268.144531 148.371094 267.613281 148.335938 267.089844 148.25 C 266.5625 148.167969 266.042969 148.042969 265.539062 147.855469 C 265.039062 147.671875 264.558594 147.417969 264.136719 147.082031 C 263.726562 146.75 263.351562 146.332031 263.191406 145.828125 "/>
<path style=" stroke:none;fill-rule:nonzero;fill:rgb(91.758728%,61.178589%,46.269226%);fill-opacity:1;" d="M 281.960938 111.617188 L 281.875 111.597656 L 278.230469 109.8125 C 278.121094 109.757812 278.074219 109.621094 278.128906 109.507812 C 278.183594 109.394531 278.320312 109.347656 278.433594 109.402344 L 282.074219 111.1875 C 282.183594 111.242188 282.234375 111.378906 282.175781 111.492188 C 282.136719 111.578125 282.046875 111.621094 281.960938 111.617188 "/>
<path style=" stroke:none;fill-rule:nonzero;fill:rgb(91.758728%,61.178589%,46.269226%);fill-opacity:1;" d="M 281.734375 116.5625 L 281.644531 116.539062 L 278.003906 114.753906 C 277.890625 114.699219 277.847656 114.5625 277.902344 114.449219 C 277.957031 114.339844 278.089844 114.289062 278.203125 114.347656 L 281.84375 116.132812 C 281.957031 116.183594 282.003906 116.320312 281.949219 116.433594 C 281.90625 116.519531 281.824219 116.566406 281.734375 116.5625 "/>
<path style=" stroke:none;fill-rule:nonzero;fill:rgb(91.758728%,61.178589%,46.269226%);fill-opacity:1;" d="M 281.515625 121.304688 L 281.429688 121.28125 L 277.785156 119.496094 C 277.671875 119.441406 277.625 119.304688 277.683594 119.191406 C 277.734375 119.078125 277.871094 119.03125 277.984375 119.085938 L 281.625 120.875 C 281.738281 120.929688 281.785156 121.0625 281.730469 121.175781 C 281.6875 121.257812 281.601562 121.308594 281.515625 121.304688 "/>
<path style=" stroke:none;fill-rule:nonzero;fill:rgb(91.758728%,61.178589%,46.269226%);fill-opacity:1;" d="M 281.308594 125.835938 L 281.21875 125.8125 L 277.574219 124.027344 C 277.464844 123.972656 277.417969 123.835938 277.476562 123.726562 C 277.527344 123.613281 277.664062 123.5625 277.777344 123.621094 L 281.414062 125.40625 C 281.53125 125.460938 281.574219 125.59375 281.519531 125.710938 C 281.480469 125.792969 281.394531 125.839844 281.308594 125.835938 "/>
<path style=" stroke:none;fill-rule:nonzero;fill:rgb(91.758728%,61.178589%,46.269226%);fill-opacity:1;" d="M 281.074219 130.90625 L 280.984375 130.886719 L 277.34375 129.097656 C 277.230469 129.042969 277.183594 128.910156 277.238281 128.796875 C 277.292969 128.683594 277.429688 128.636719 277.542969 128.691406 L 281.183594 130.476562 C 281.296875 130.53125 281.339844 130.667969 281.289062 130.78125 C 281.246094 130.863281 281.160156 130.910156 281.074219 130.90625 "/>
<path style=" stroke:none;fill-rule:nonzero;fill:rgb(55.688477%,46.669006%,76.469421%);fill-opacity:1;" d="M 279.792969 109.726562 C 279.753906 110.539062 279.070312 111.164062 278.261719 111.125 C 277.453125 111.089844 276.828125 110.402344 276.867188 109.589844 C 276.902344 108.78125 277.589844 108.15625 278.398438 108.191406 C 279.203125 108.230469 279.832031 108.917969 279.792969 109.726562 "/>
<path style=" stroke:none;fill-rule:nonzero;fill:rgb(55.688477%,46.669006%,76.469421%);fill-opacity:1;" d="M 279.566406 114.589844 C 279.53125 115.398438 278.84375 116.023438 278.039062 115.988281 C 277.230469 115.953125 276.605469 115.261719 276.640625 114.453125 C 276.679688 113.644531 277.363281 113.015625 278.171875 113.050781 C 278.980469 113.089844 279.605469 113.777344 279.566406 114.589844 "/>
<path style=" stroke:none;fill-rule:nonzero;fill:rgb(55.688477%,46.669006%,76.469421%);fill-opacity:1;" d="M 279.355469 119.183594 C 279.320312 119.992188 278.632812 120.617188 277.828125 120.582031 C 277.019531 120.542969 276.394531 119.855469 276.433594 119.046875 C 276.46875 118.238281 277.152344 117.609375 277.960938 117.644531 C 278.769531 117.683594 279.394531 118.371094 279.355469 119.183594 "/>
<path style=" stroke:none;fill-rule:nonzero;fill:rgb(55.688477%,46.669006%,76.469421%);fill-opacity:1;" d="M 279.140625 123.835938 C 279.105469 124.648438 278.417969 125.273438 277.613281 125.238281 C 276.804688 125.195312 276.179688 124.511719 276.214844 123.699219 C 276.257812 122.890625 276.9375 122.265625 277.746094 122.300781 C 278.554688 122.339844 279.179688 123.027344 279.140625 123.835938 "/>
<path style=" stroke:none;fill-rule:nonzero;fill:rgb(55.688477%,46.669006%,76.469421%);fill-opacity:1;" d="M 278.90625 128.964844 C 278.867188 129.773438 278.183594 130.402344 277.375 130.363281 C 276.566406 130.324219 275.945312 129.636719 275.980469 128.828125 C 276.019531 128.015625 276.703125 127.390625 277.511719 127.429688 C 278.320312 127.464844 278.945312 128.152344 278.90625 128.964844 "/>
<path style=" stroke:none;fill-rule:nonzero;fill:rgb(91.758728%,61.178589%,46.269226%);fill-opacity:1;" d="M 281.960938 111.617188 C 281.875 111.613281 281.792969 111.558594 281.761719 111.472656 C 281.714844 111.355469 281.777344 111.222656 281.890625 111.179688 L 285.683594 109.738281 C 285.796875 109.695312 285.929688 109.753906 285.976562 109.875 C 286.019531 109.988281 285.960938 110.117188 285.84375 110.164062 L 282.050781 111.605469 L 281.960938 111.617188 "/>
<path style=" stroke:none;fill-rule:nonzero;fill:rgb(91.758728%,61.178589%,46.269226%);fill-opacity:1;" d="M 281.734375 116.5625 C 281.644531 116.558594 281.566406 116.503906 281.535156 116.417969 C 281.488281 116.296875 281.550781 116.167969 281.667969 116.121094 L 285.457031 114.683594 C 285.570312 114.640625 285.703125 114.695312 285.746094 114.816406 C 285.792969 114.933594 285.734375 115.0625 285.617188 115.105469 L 281.824219 116.546875 L 281.734375 116.5625 "/>
<path style=" stroke:none;fill-rule:nonzero;fill:rgb(91.758728%,61.178589%,46.269226%);fill-opacity:1;" d="M 281.515625 121.304688 C 281.429688 121.300781 281.347656 121.246094 281.316406 121.15625 C 281.269531 121.042969 281.332031 120.910156 281.445312 120.863281 L 285.234375 119.425781 C 285.351562 119.378906 285.484375 119.4375 285.53125 119.554688 C 285.570312 119.671875 285.511719 119.804688 285.398438 119.847656 L 281.605469 121.289062 L 281.515625 121.304688 "/>
<path style=" stroke:none;fill-rule:nonzero;fill:rgb(91.758728%,61.178589%,46.269226%);fill-opacity:1;" d="M 281.308594 125.835938 C 281.21875 125.832031 281.140625 125.777344 281.109375 125.691406 C 281.0625 125.574219 281.121094 125.441406 281.238281 125.398438 L 285.027344 123.957031 C 285.144531 123.914062 285.277344 123.972656 285.320312 124.089844 C 285.363281 124.207031 285.304688 124.335938 285.1875 124.382812 L 281.398438 125.824219 L 281.308594 125.835938 "/>
<path style=" stroke:none;fill-rule:nonzero;fill:rgb(91.758728%,61.178589%,46.269226%);fill-opacity:1;" d="M 281.074219 130.90625 C 280.988281 130.902344 280.902344 130.847656 280.871094 130.761719 C 280.828125 130.644531 280.890625 130.511719 281.003906 130.46875 L 284.792969 129.027344 C 284.910156 128.984375 285.039062 129.042969 285.085938 129.160156 C 285.128906 129.277344 285.070312 129.410156 284.953125 129.449219 L 281.164062 130.890625 L 281.074219 130.90625 "/>
<path style=" stroke:none;fill-rule:nonzero;fill:rgb(55.688477%,46.669006%,76.469421%);fill-opacity:1;" d="M 284.296875 109.933594 C 284.261719 110.746094 284.886719 111.433594 285.691406 111.46875 C 286.5 111.511719 287.1875 110.882812 287.222656 110.074219 C 287.261719 109.261719 286.636719 108.574219 285.828125 108.535156 C 285.019531 108.5 284.335938 109.125 284.296875 109.933594 "/>
<path style=" stroke:none;fill-rule:nonzero;fill:rgb(55.688477%,46.669006%,76.469421%);fill-opacity:1;" d="M 284.074219 114.796875 C 284.039062 115.605469 284.664062 116.296875 285.46875 116.332031 C 286.277344 116.371094 286.960938 115.742188 287 114.933594 C 287.035156 114.125 286.410156 113.433594 285.605469 113.394531 C 284.796875 113.359375 284.113281 113.988281 284.074219 114.796875 "/>
<path style=" stroke:none;fill-rule:nonzero;fill:rgb(55.688477%,46.669006%,76.469421%);fill-opacity:1;" d="M 283.863281 119.390625 C 283.824219 120.199219 284.449219 120.886719 285.257812 120.925781 C 286.066406 120.960938 286.75 120.335938 286.785156 119.527344 C 286.824219 118.714844 286.203125 118.027344 285.394531 117.992188 C 284.585938 117.953125 283.902344 118.578125 283.863281 119.390625 "/>
<path style=" stroke:none;fill-rule:nonzero;fill:rgb(55.688477%,46.669006%,76.469421%);fill-opacity:1;" d="M 283.648438 124.046875 C 283.613281 124.855469 284.234375 125.542969 285.042969 125.582031 C 285.851562 125.621094 286.535156 124.992188 286.570312 124.179688 C 286.609375 123.371094 285.984375 122.683594 285.175781 122.648438 C 284.371094 122.609375 283.6875 123.234375 283.648438 124.046875 "/>
<path style=" stroke:none;fill-rule:nonzero;fill:rgb(55.688477%,46.669006%,76.469421%);fill-opacity:1;" d="M 283.410156 129.171875 C 283.375 129.984375 283.996094 130.667969 284.808594 130.710938 C 285.613281 130.746094 286.300781 130.117188 286.335938 129.308594 C 286.375 128.496094 285.746094 127.808594 284.941406 127.773438 C 284.132812 127.738281 283.449219 128.359375 283.410156 129.171875 "/>
<path style=" stroke:none;fill-rule:nonzero;fill:rgb(91.758728%,61.178589%,46.269226%);fill-opacity:1;" d="M 280.320312 147.222656 C 280.195312 147.214844 280.101562 147.113281 280.105469 146.988281 L 282 105.882812 C 282.007812 105.753906 282.113281 105.660156 282.234375 105.664062 C 282.359375 105.671875 282.457031 105.777344 282.453125 105.902344 L 280.558594 147.007812 C 280.554688 147.132812 280.449219 147.230469 280.320312 147.222656 "/>
<path style=" stroke:none;fill-rule:nonzero;fill:rgb(55.688477%,46.669006%,76.469421%);fill-opacity:1;" d="M 283.6875 105.957031 C 283.652344 106.769531 282.964844 107.398438 282.15625 107.359375 C 281.351562 107.320312 280.726562 106.632812 280.765625 105.824219 C 280.804688 105.011719 281.484375 104.386719 282.292969 104.425781 C 283.101562 104.460938 283.726562 105.148438 283.6875 105.957031 "/>
<g clip-path="url(#clip2)" clip-rule="nonzero">
<path style=" stroke:none;fill-rule:nonzero;fill:rgb(91.758728%,61.178589%,46.269226%);fill-opacity:1;" d="M 246.136719 96.171875 C 288.359375 131.089844 294.40625 193.964844 259.609375 236.332031 C 256.8125 239.746094 253.828125 242.917969 250.691406 245.855469 C 251.066406 246.390625 251.429688 246.933594 251.785156 247.472656 C 255.0625 244.425781 258.179688 241.121094 261.097656 237.566406 C 296.566406 194.371094 290.40625 130.273438 247.359375 94.683594 C 246.949219 94.339844 246.34375 94.398438 246.003906 94.8125 C 245.664062 95.226562 245.722656 95.835938 246.136719 96.171875 "/>
</g>
<path style=" stroke:none;fill-rule:nonzero;fill:rgb(91.758728%,61.178589%,46.269226%);fill-opacity:1;" d="M 256.671875 133.25 C 256.417969 133.039062 256.277344 132.699219 256.332031 132.351562 C 256.414062 131.820312 256.90625 131.460938 257.433594 131.546875 C 272.136719 133.863281 281.597656 151.039062 281.992188 151.765625 C 282.246094 152.238281 282.074219 152.824219 281.605469 153.078125 C 281.136719 153.339844 280.550781 153.164062 280.296875 152.691406 C 280.203125 152.523438 270.886719 135.625 257.132812 133.457031 C 256.957031 133.429688 256.796875 133.355469 256.671875 133.25 "/>
<path style=" stroke:none;fill-rule:nonzero;fill:rgb(91.758728%,61.178589%,46.269226%);fill-opacity:1;" d="M 258.777344 135.085938 L 258.777344 135.191406 C 258.746094 135.308594 258.632812 135.375 258.519531 135.347656 C 253.453125 134.027344 248.71875 134.578125 243.621094 137.074219 C 234.65625 141.464844 230.15625 138.566406 229.96875 138.441406 C 229.871094 138.378906 229.847656 138.246094 229.914062 138.148438 C 229.976562 138.046875 230.109375 138.023438 230.207031 138.085938 C 230.25 138.117188 234.710938 140.960938 243.429688 136.6875 C 248.628906 134.144531 253.457031 133.589844 258.625 134.933594 C 258.703125 134.949219 258.761719 135.011719 258.777344 135.085938 "/>
<path style=" stroke:none;fill-rule:nonzero;fill:rgb(55.688477%,46.669006%,76.469421%);fill-opacity:1;" d="M 232.164062 138.128906 C 232.28125 139.28125 231.445312 140.300781 230.304688 140.417969 C 229.160156 140.535156 228.136719 139.695312 228.023438 138.546875 C 227.910156 137.402344 228.742188 136.375 229.886719 136.261719 C 231.03125 136.144531 232.054688 136.984375 232.164062 138.128906 "/>
<path style=" stroke:none;fill-rule:nonzero;fill:rgb(91.758728%,61.178589%,46.269226%);fill-opacity:1;" d="M 255.171875 135.847656 C 255.1875 135.910156 255.175781 135.980469 255.132812 136.03125 C 250.894531 141.175781 245.765625 143.160156 241.648438 144.753906 C 239.363281 145.640625 237.386719 146.40625 236.179688 147.515625 C 236.09375 147.59375 235.960938 147.589844 235.878906 147.5 C 235.800781 147.417969 235.808594 147.28125 235.890625 147.199219 C 237.15625 146.039062 239.167969 145.257812 241.5 144.359375 C 245.566406 142.78125 250.636719 140.816406 254.800781 135.761719 C 254.878906 135.671875 255.011719 135.65625 255.101562 135.734375 L 255.171875 135.847656 "/>
<path style=" stroke:none;fill-rule:nonzero;fill:rgb(55.688477%,46.669006%,76.469421%);fill-opacity:1;" d="M 237.273438 147.46875 C 237.703125 148.535156 237.191406 149.753906 236.128906 150.191406 C 235.0625 150.625 233.847656 150.113281 233.417969 149.042969 C 232.980469 147.976562 233.492188 146.757812 234.558594 146.320312 C 235.625 145.886719 236.839844 146.398438 237.273438 147.46875 "/>
<path style=" stroke:none;fill-rule:nonzero;fill:rgb(91.758728%,61.178589%,46.269226%);fill-opacity:1;" d="M 255.4375 132.28125 L 255.4375 132.363281 C 254.5625 139.117188 248.90625 142.722656 244.78125 145.355469 C 243.351562 146.269531 242.117188 147.054688 241.269531 147.835938 C 241.183594 147.914062 241.046875 147.90625 240.96875 147.820312 C 240.890625 147.730469 240.894531 147.597656 240.984375 147.515625 C 241.859375 146.714844 243.105469 145.917969 244.550781 144.996094 C 248.609375 142.410156 254.167969 138.867188 255.015625 132.304688 C 255.03125 132.191406 255.144531 132.105469 255.257812 132.121094 C 255.347656 132.132812 255.414062 132.199219 255.4375 132.28125 "/>
<path style=" stroke:none;fill-rule:nonzero;fill:rgb(55.688477%,46.669006%,76.469421%);fill-opacity:1;" d="M 242.359375 147.785156 C 242.796875 148.851562 242.285156 150.074219 241.21875 150.507812 C 240.15625 150.945312 238.9375 150.429688 238.507812 149.363281 C 238.070312 148.292969 238.585938 147.074219 239.648438 146.636719 C 240.710938 146.203125 241.925781 146.714844 242.359375 147.785156 "/>
<path style=" stroke:none;fill-rule:nonzero;fill:rgb(91.758728%,61.178589%,46.269226%);fill-opacity:1;" d="M 255.878906 133.054688 L 255.886719 133.117188 C 255.421875 141.957031 251.503906 147.25 248.640625 151.109375 C 247.085938 153.203125 245.863281 154.855469 245.65625 156.421875 C 245.640625 156.539062 245.535156 156.617188 245.421875 156.605469 C 245.304688 156.589844 245.222656 156.484375 245.234375 156.367188 C 245.453125 154.695312 246.707031 153 248.300781 150.851562 C 251.128906 147.039062 255.003906 141.808594 255.460938 133.09375 C 255.464844 132.976562 255.566406 132.886719 255.683594 132.890625 C 255.78125 132.898438 255.859375 132.96875 255.878906 133.054688 "/>
<path style=" stroke:none;fill-rule:nonzero;fill:rgb(55.688477%,46.669006%,76.469421%);fill-opacity:1;" d="M 246.464844 155.679688 C 247.480469 156.214844 247.875 157.476562 247.339844 158.496094 C 246.808594 159.519531 245.550781 159.914062 244.53125 159.378906 C 243.511719 158.84375 243.117188 157.582031 243.652344 156.558594 C 244.183594 155.539062 245.441406 155.144531 246.464844 155.679688 "/>
<path style=" stroke:none;fill-rule:nonzero;fill:rgb(91.758728%,61.178589%,46.269226%);fill-opacity:1;" d="M 257.191406 132.070312 L 257.191406 132.074219 C 257.21875 132.1875 257.144531 132.300781 257.03125 132.332031 L 234.160156 137.472656 C 234.050781 137.496094 233.941406 137.421875 233.910156 137.304688 C 233.882812 137.191406 233.957031 137.078125 234.070312 137.050781 L 256.9375 131.914062 C 257.046875 131.886719 257.164062 131.957031 257.191406 132.070312 "/>
<path style=" stroke:none;fill-rule:nonzero;fill:rgb(55.688477%,46.669006%,76.469421%);fill-opacity:1;" d="M 235.910156 136.203125 C 236.53125 137.175781 236.242188 138.464844 235.273438 139.085938 C 234.304688 139.703125 233.015625 139.417969 232.398438 138.441406 C 231.78125 137.472656 232.070312 136.179688 233.039062 135.5625 C 234.007812 134.941406 235.296875 135.226562 235.910156 136.203125 "/>
<path style=" stroke:none;fill-rule:nonzero;fill:rgb(91.758728%,61.178589%,46.269226%);fill-opacity:1;" d="M 255.835938 133.933594 L 255.832031 134.050781 C 253.464844 141.644531 248.480469 146.957031 244.71875 150.074219 C 240.644531 153.449219 237.078125 155.058594 237.046875 155.074219 C 236.9375 155.121094 236.8125 155.074219 236.761719 154.964844 C 236.714844 154.855469 236.765625 154.730469 236.871094 154.683594 C 237.011719 154.617188 250.949219 148.261719 255.421875 133.921875 C 255.460938 133.808594 255.578125 133.746094 255.691406 133.78125 C 255.769531 133.804688 255.820312 133.863281 255.835938 133.933594 "/>
<path style=" stroke:none;fill-rule:nonzero;fill:rgb(55.688477%,46.669006%,76.469421%);fill-opacity:1;" d="M 237.472656 152.851562 C 238.597656 153.097656 239.308594 154.210938 239.066406 155.335938 C 238.820312 156.464844 237.710938 157.179688 236.585938 156.933594 C 235.464844 156.6875 234.75 155.574219 234.996094 154.445312 C 235.242188 153.320312 236.351562 152.605469 237.472656 152.851562 "/>
<path style=" stroke:none;fill-rule:nonzero;fill:rgb(91.758728%,61.178589%,46.269226%);fill-opacity:1;" d="M 256.351562 131.519531 L 256.355469 131.601562 C 254.964844 140.089844 251.039062 145.535156 247.992188 148.609375 C 244.6875 151.945312 241.664062 153.289062 241.636719 153.300781 C 241.527344 153.351562 241.402344 153.300781 241.355469 153.191406 C 241.304688 153.085938 241.359375 152.960938 241.464844 152.910156 C 241.496094 152.898438 244.457031 151.578125 247.707031 148.292969 C 250.703125 145.265625 254.5625 139.902344 255.933594 131.53125 C 255.953125 131.414062 256.066406 131.335938 256.179688 131.355469 C 256.265625 131.371094 256.332031 131.4375 256.351562 131.519531 "/>
<path style=" stroke:none;fill-rule:nonzero;fill:rgb(55.688477%,46.669006%,76.469421%);fill-opacity:1;" d="M 243.335938 152.03125 C 242.78125 151.019531 241.511719 150.65625 240.507812 151.210938 C 239.5 151.773438 239.132812 153.042969 239.695312 154.050781 C 240.25 155.0625 241.515625 155.429688 242.519531 154.871094 C 243.527344 154.308594 243.890625 153.039062 243.335938 152.03125 "/>
<path style=" stroke:none;fill-rule:nonzero;fill:rgb(91.758728%,61.178589%,46.269226%);fill-opacity:1;" d="M 255.46875 129.984375 L 255.480469 130.015625 C 256.75 145.140625 249.496094 154.113281 249.421875 154.203125 C 249.347656 154.292969 249.210938 154.304688 249.121094 154.230469 C 249.03125 154.15625 249.019531 154.019531 249.09375 153.929688 C 249.167969 153.839844 256.308594 144.992188 255.050781 130.050781 C 255.042969 129.9375 255.128906 129.832031 255.246094 129.820312 C 255.351562 129.816406 255.445312 129.882812 255.46875 129.984375 "/>
<path style=" stroke:none;fill-rule:nonzero;fill:rgb(55.688477%,46.669006%,76.469421%);fill-opacity:1;" d="M 250.292969 152.253906 C 249.320312 151.644531 248.035156 151.945312 247.425781 152.921875 C 246.820312 153.898438 247.117188 155.1875 248.089844 155.800781 C 249.070312 156.410156 250.355469 156.109375 250.960938 155.128906 C 251.570312 154.152344 251.273438 152.863281 250.292969 152.253906 "/>
<path style=" stroke:none;fill-rule:nonzero;fill:rgb(91.758728%,61.178589%,46.269226%);fill-opacity:1;" d="M 257.191406 132.070312 L 257.175781 132.210938 C 252.875 141.429688 246.332031 146.390625 241.597656 148.925781 C 236.464844 151.675781 232.289062 152.253906 232.25 152.261719 C 232.132812 152.273438 232.023438 152.191406 232.007812 152.074219 C 231.992188 151.957031 232.074219 151.851562 232.191406 151.835938 C 232.230469 151.832031 236.347656 151.257812 241.410156 148.539062 C 246.082031 146.03125 252.542969 141.136719 256.792969 132.027344 C 256.839844 131.921875 256.96875 131.875 257.074219 131.925781 C 257.136719 131.957031 257.175781 132.007812 257.191406 132.070312 "/>
<path style=" stroke:none;fill-rule:nonzero;fill:rgb(55.688477%,46.669006%,76.469421%);fill-opacity:1;" d="M 234.140625 151.234375 C 233.730469 150.160156 232.527344 149.613281 231.453125 150.023438 C 230.378906 150.433594 229.835938 151.640625 230.25 152.71875 C 230.65625 153.800781 231.859375 154.339844 232.933594 153.929688 C 234.007812 153.515625 234.546875 152.3125 234.140625 151.234375 "/>
<path style=" stroke:none;fill-rule:nonzero;fill:rgb(91.758728%,61.178589%,46.269226%);fill-opacity:1;" d="M 256.746094 132.164062 C 256.761719 132.230469 256.75 132.304688 256.695312 132.359375 C 253.074219 136.296875 248.714844 138.445312 242.972656 139.132812 C 233.335938 140.28125 231.117188 145.089844 231.097656 145.140625 C 231.050781 145.25 230.925781 145.296875 230.816406 145.253906 C 230.710938 145.203125 230.660156 145.078125 230.707031 144.96875 C 230.796875 144.761719 233.019531 139.886719 242.925781 138.707031 C 248.554688 138.035156 252.832031 135.929688 256.382812 132.070312 C 256.464844 131.984375 256.597656 131.976562 256.683594 132.058594 L 256.746094 132.164062 "/>
<path style=" stroke:none;fill-rule:nonzero;fill:rgb(55.688477%,46.669006%,76.469421%);fill-opacity:1;" d="M 232.722656 144.039062 C 232.199219 143.011719 230.945312 142.605469 229.921875 143.125 C 228.898438 143.652344 228.492188 144.910156 229.015625 145.9375 C 229.535156 146.964844 230.789062 147.375 231.8125 146.851562 C 232.839844 146.324219 233.246094 145.066406 232.722656 144.039062 "/>
<path style=" stroke:none;fill-rule:nonzero;fill:rgb(91.758728%,61.178589%,46.269226%);fill-opacity:1;" d="M 256.414062 133.105469 L 256.417969 133.183594 C 256.402344 133.300781 256.296875 133.382812 256.179688 133.367188 C 254.476562 133.160156 253.277344 132.933594 252.304688 132.75 C 250.035156 132.320312 249.09375 132.144531 246.042969 133.003906 C 232.785156 136.730469 228.957031 133.21875 228.800781 133.070312 C 228.714844 132.988281 228.710938 132.851562 228.792969 132.765625 C 228.875 132.679688 229.011719 132.675781 229.09375 132.761719 C 229.132812 132.796875 232.953125 136.238281 245.925781 132.59375 C 249.074219 131.703125 250.113281 131.902344 252.386719 132.332031 C 253.347656 132.511719 254.546875 132.738281 256.230469 132.941406 C 256.320312 132.957031 256.394531 133.023438 256.414062 133.105469 "/>
<path style=" stroke:none;fill-rule:nonzero;fill:rgb(55.688477%,46.669006%,76.469421%);fill-opacity:1;" d="M 231.03125 132.964844 C 231.042969 134.117188 230.125 135.066406 228.972656 135.078125 C 227.824219 135.089844 226.878906 134.164062 226.867188 133.011719 C 226.855469 131.863281 227.777344 130.914062 228.925781 130.898438 C 230.074219 130.886719 231.015625 131.8125 231.03125 132.964844 "/>
<path style=" stroke:none;fill-rule:nonzero;fill:rgb(91.758728%,61.178589%,46.269226%);fill-opacity:1;" d="M 256.085938 132.601562 C 256.105469 132.683594 256.074219 132.773438 256.003906 132.828125 C 250.832031 136.46875 245.011719 138.378906 240.425781 137.941406 C 240.3125 137.929688 240.222656 137.824219 240.238281 137.707031 C 240.246094 137.589844 240.351562 137.503906 240.46875 137.515625 C 244.953125 137.941406 250.671875 136.0625 255.757812 132.476562 C 255.855469 132.40625 255.984375 132.433594 256.054688 132.527344 L 256.085938 132.601562 "/>
<path style=" stroke:none;fill-rule:nonzero;fill:rgb(55.688477%,46.669006%,76.469421%);fill-opacity:1;" d="M 241.367188 136.894531 C 241.074219 135.777344 239.9375 135.113281 238.824219 135.410156 C 237.710938 135.703125 237.050781 136.847656 237.34375 137.964844 C 237.640625 139.078125 238.777344 139.742188 239.890625 139.445312 C 241 139.152344 241.660156 138.011719 241.367188 136.894531 "/>
<path style=" stroke:none;fill-rule:nonzero;fill:rgb(91.758728%,61.178589%,46.269226%);fill-opacity:1;" d="M 257.367188 132.800781 L 257.355469 132.9375 C 255.183594 137.71875 254.910156 142.496094 256.476562 147.960938 C 256.515625 148.074219 256.445312 148.195312 256.332031 148.226562 C 256.21875 148.261719 256.105469 148.195312 256.070312 148.082031 C 254.46875 142.507812 254.753906 137.640625 256.960938 132.761719 C 257.011719 132.65625 257.136719 132.609375 257.246094 132.65625 C 257.308594 132.683594 257.351562 132.738281 257.367188 132.800781 "/>
<path style=" stroke:none;fill-rule:nonzero;fill:rgb(55.688477%,46.669006%,76.469421%);fill-opacity:1;" d="M 256.921875 146.960938 C 258.066406 147.046875 258.929688 148.046875 258.84375 149.199219 C 258.761719 150.347656 257.761719 151.210938 256.617188 151.128906 C 255.46875 151.042969 254.609375 150.042969 254.691406 148.890625 C 254.777344 147.738281 255.773438 146.875 256.921875 146.960938 "/>
<path style=" stroke:none;fill-rule:nonzero;fill:rgb(91.758728%,61.178589%,46.269226%);fill-opacity:1;" d="M 255.085938 135.054688 C 255.105469 135.117188 255.085938 135.191406 255.042969 135.242188 C 252.109375 138.671875 248.5 140.1875 245.316406 141.519531 C 243.148438 142.433594 241.273438 143.21875 239.929688 144.453125 C 239.839844 144.53125 239.703125 144.527344 239.625 144.441406 C 239.546875 144.351562 239.554688 144.21875 239.640625 144.136719 C 241.039062 142.855469 243.039062 142.015625 245.15625 141.128906 C 248.292969 139.8125 251.851562 138.320312 254.722656 134.964844 C 254.796875 134.875 254.929688 134.867188 255.015625 134.941406 L 255.085938 135.054688 "/>
<path style=" stroke:none;fill-rule:nonzero;fill:rgb(55.688477%,46.669006%,76.469421%);fill-opacity:1;" d="M 241.019531 144.410156 C 241.453125 145.476562 240.941406 146.695312 239.875 147.128906 C 238.808594 147.5625 237.597656 147.050781 237.164062 145.984375 C 236.726562 144.914062 237.242188 143.695312 238.304688 143.261719 C 239.371094 142.828125 240.585938 143.339844 241.019531 144.410156 "/>
<path style=" stroke:none;fill-rule:nonzero;fill:rgb(91.758728%,61.178589%,46.269226%);fill-opacity:1;" d="M 256.152344 132.789062 L 256.152344 132.875 C 255.269531 138.269531 252.484375 140.96875 250.027344 143.351562 C 248.1875 145.140625 246.59375 146.683594 246.046875 149.054688 C 246.019531 149.167969 245.902344 149.242188 245.792969 149.214844 C 245.671875 149.183594 245.601562 149.070312 245.628906 148.957031 C 246.207031 146.464844 247.921875 144.804688 249.734375 143.046875 C 252.140625 140.707031 254.871094 138.058594 255.730469 132.804688 C 255.75 132.6875 255.859375 132.613281 255.976562 132.628906 C 256.0625 132.640625 256.128906 132.707031 256.152344 132.789062 "/>
<path style=" stroke:none;fill-rule:nonzero;fill:rgb(55.688477%,46.669006%,76.469421%);fill-opacity:1;" d="M 247.167969 148.011719 C 247.601562 149.085938 247.089844 150.300781 246.023438 150.738281 C 244.960938 151.171875 243.746094 150.660156 243.3125 149.589844 C 242.878906 148.523438 243.390625 147.300781 244.453125 146.867188 C 245.519531 146.433594 246.734375 146.945312 247.167969 148.011719 "/>
<path style=" stroke:none;fill-rule:nonzero;fill:rgb(91.758728%,61.178589%,46.269226%);fill-opacity:1;" d="M 253.851562 130.378906 L 253.84375 130.511719 C 253.796875 130.621094 253.667969 130.671875 253.5625 130.625 C 247.546875 128.050781 242.148438 128.632812 237.808594 129.101562 C 235.328125 129.371094 233.1875 129.601562 231.53125 129.152344 C 231.417969 129.121094 231.347656 129.007812 231.382812 128.890625 C 231.410156 128.777344 231.527344 128.707031 231.644531 128.738281 C 233.21875 129.167969 235.328125 128.941406 237.761719 128.679688 C 242.152344 128.203125 247.617188 127.613281 253.730469 130.234375 C 253.792969 130.257812 253.839844 130.316406 253.851562 130.378906 "/>
<path style=" stroke:none;fill-rule:nonzero;fill:rgb(55.688477%,46.669006%,76.469421%);fill-opacity:1;" d="M 232.632812 128.277344 C 232.53125 127.132812 231.523438 126.28125 230.375 126.386719 C 229.230469 126.488281 228.382812 127.5 228.484375 128.652344 C 228.589844 129.800781 229.601562 130.648438 230.746094 130.546875 C 231.886719 130.445312 232.738281 129.429688 232.632812 128.277344 "/>
<path style=" stroke:none;fill-rule:nonzero;fill:rgb(91.758728%,61.178589%,46.269226%);fill-opacity:1;" d="M 255.714844 133.421875 C 255.734375 133.507812 255.703125 133.601562 255.628906 133.652344 C 255.535156 133.71875 255.398438 133.695312 255.328125 133.597656 C 251.578125 128.160156 245.019531 127.5625 240.234375 127.132812 C 238.527344 126.976562 237.054688 126.84375 235.910156 126.53125 C 235.792969 126.5 235.730469 126.382812 235.761719 126.265625 C 235.789062 126.152344 235.90625 126.085938 236.023438 126.117188 C 237.132812 126.417969 238.585938 126.550781 240.273438 126.703125 C 245.144531 127.148438 251.816406 127.753906 255.683594 133.351562 L 255.714844 133.421875 "/>
<path style=" stroke:none;fill-rule:nonzero;fill:rgb(55.688477%,46.669006%,76.469421%);fill-opacity:1;" d="M 237.011719 125.65625 C 236.910156 124.507812 235.898438 123.660156 234.753906 123.761719 C 233.609375 123.867188 232.761719 124.878906 232.867188 126.03125 C 232.964844 127.175781 233.980469 128.027344 235.125 127.925781 C 236.269531 127.820312 237.117188 126.808594 237.011719 125.65625 "/>
<path style=" stroke:none;fill-rule:nonzero;fill:rgb(91.758728%,61.178589%,46.269226%);fill-opacity:1;" d="M 256.316406 133.476562 L 256.316406 133.480469 C 256.339844 133.59375 256.273438 133.707031 256.160156 133.734375 C 252.191406 134.675781 249.941406 136.144531 247.558594 137.699219 C 244.808594 139.496094 241.964844 141.351562 236.320312 142.261719 C 236.203125 142.28125 236.09375 142.199219 236.074219 142.085938 C 236.058594 141.96875 236.136719 141.859375 236.25 141.84375 C 241.808594 140.945312 244.613281 139.113281 247.328125 137.339844 C 249.632812 135.832031 252.023438 134.273438 256.058594 133.320312 C 256.171875 133.292969 256.285156 133.363281 256.316406 133.476562 "/>
<path style=" stroke:none;fill-rule:nonzero;fill:rgb(55.688477%,46.669006%,76.469421%);fill-opacity:1;" d="M 236.050781 140.832031 C 234.945312 140.507812 233.789062 141.140625 233.46875 142.25 C 233.144531 143.355469 233.78125 144.515625 234.882812 144.839844 C 235.984375 145.164062 237.144531 144.53125 237.464844 143.425781 C 237.785156 142.316406 237.152344 141.15625 236.050781 140.832031 "/>
<path style=" stroke:none;fill-rule:nonzero;fill:rgb(91.758728%,61.178589%,46.269226%);fill-opacity:1;" d="M 255.753906 132.535156 C 255.773438 132.625 255.738281 132.71875 255.652344 132.769531 C 255.554688 132.828125 255.421875 132.796875 255.363281 132.695312 C 250.976562 125.160156 245.148438 122.292969 240.886719 120.203125 C 238.496094 119.027344 236.605469 118.097656 235.648438 116.710938 C 235.582031 116.609375 235.609375 116.476562 235.703125 116.410156 C 235.804688 116.34375 235.933594 116.367188 236 116.464844 C 236.890625 117.761719 238.742188 118.667969 241.074219 119.8125 C 245.382812 121.933594 251.28125 124.832031 255.730469 132.480469 L 255.753906 132.535156 "/>
<path style=" stroke:none;fill-rule:nonzero;fill:rgb(55.688477%,46.669006%,76.469421%);fill-opacity:1;" d="M 237.050781 116.757812 C 237.714844 115.8125 237.488281 114.507812 236.546875 113.847656 C 235.605469 113.183594 234.308594 113.410156 233.644531 114.355469 C 232.988281 115.296875 233.210938 116.601562 234.15625 117.265625 C 235.09375 117.925781 236.394531 117.703125 237.050781 116.757812 "/>
<path style=" stroke:none;fill-rule:nonzero;fill:rgb(91.758728%,61.178589%,46.269226%);fill-opacity:1;" d="M 255.3125 131.773438 C 255.328125 131.84375 255.308594 131.921875 255.257812 131.976562 C 255.171875 132.058594 255.039062 132.058594 254.953125 131.972656 C 244.429688 121.289062 229.136719 122.042969 228.984375 122.050781 C 228.863281 122.058594 228.765625 121.96875 228.757812 121.851562 C 228.753906 121.734375 228.839844 121.632812 228.960938 121.625 C 229 121.625 232.902344 121.410156 238.066406 122.539062 C 242.832031 123.582031 249.683594 126.015625 255.257812 131.675781 L 255.3125 131.773438 "/>
<path style=" stroke:none;fill-rule:nonzero;fill:rgb(55.688477%,46.669006%,76.469421%);fill-opacity:1;" d="M 230.355469 123.402344 C 231.242188 122.664062 231.367188 121.351562 230.636719 120.460938 C 229.902344 119.570312 228.589844 119.445312 227.703125 120.183594 C 226.820312 120.914062 226.695312 122.234375 227.425781 123.125 C 228.15625 124.011719 229.46875 124.132812 230.355469 123.402344 "/>
<path style=" stroke:none;fill-rule:nonzero;fill:rgb(91.758728%,61.178589%,46.269226%);fill-opacity:1;" d="M 256.878906 133.6875 C 256.894531 133.765625 256.867188 133.859375 256.796875 133.910156 C 256.703125 133.980469 256.566406 133.957031 256.496094 133.863281 C 246.84375 120.824219 234.003906 121.503906 233.875 121.515625 C 233.757812 121.523438 233.660156 121.429688 233.648438 121.316406 C 233.640625 121.199219 233.730469 121.09375 233.847656 121.085938 C 233.878906 121.085938 237.183594 120.890625 241.644531 122.335938 C 245.753906 123.664062 251.726562 126.703125 256.84375 133.609375 L 256.878906 133.6875 "/>
<path style=" stroke:none;fill-rule:nonzero;fill:rgb(55.688477%,46.669006%,76.469421%);fill-opacity:1;" d="M 235.941406 121.4375 C 235.910156 122.589844 234.949219 123.496094 233.796875 123.460938 C 232.652344 123.429688 231.742188 122.46875 231.777344 121.3125 C 231.808594 120.164062 232.769531 119.253906 233.917969 119.289062 C 235.070312 119.320312 235.972656 120.285156 235.941406 121.4375 "/>
<path style=" stroke:none;fill-rule:nonzero;fill:rgb(91.758728%,61.178589%,46.269226%);fill-opacity:1;" d="M 256.792969 135.453125 C 256.816406 135.554688 256.765625 135.660156 256.667969 135.699219 C 256.558594 135.746094 256.4375 135.695312 256.390625 135.585938 C 250.683594 121.71875 240.292969 117.144531 240.191406 117.101562 C 240.082031 117.054688 240.03125 116.929688 240.078125 116.824219 C 240.125 116.710938 240.25 116.660156 240.355469 116.707031 C 240.464844 116.75 251.011719 121.394531 256.78125 135.421875 L 256.792969 135.453125 "/>
<path style=" stroke:none;fill-rule:nonzero;fill:rgb(55.688477%,46.669006%,76.469421%);fill-opacity:1;" d="M 242.023438 118.039062 C 241.433594 119.03125 240.15625 119.355469 239.167969 118.761719 C 238.179688 118.171875 237.859375 116.890625 238.445312 115.898438 C 239.039062 114.90625 240.3125 114.582031 241.300781 115.175781 C 242.289062 115.765625 242.613281 117.050781 242.023438 118.039062 "/>
<path style=" stroke:none;fill-rule:nonzero;fill:rgb(91.758728%,61.178589%,46.269226%);fill-opacity:1;" d="M 257.367188 132.804688 C 257.382812 132.871094 257.375 132.9375 257.332031 132.988281 C 257.257812 133.085938 257.125 133.101562 257.03125 133.027344 C 249.09375 126.882812 241.109375 125.5 235.804688 125.421875 C 230.066406 125.335938 226.164062 126.71875 226.121094 126.734375 C 226.011719 126.773438 225.890625 126.71875 225.851562 126.605469 C 225.8125 126.492188 225.867188 126.371094 225.980469 126.332031 C 226.019531 126.316406 229.996094 124.90625 235.8125 124.992188 C 241.179688 125.074219 249.257812 126.472656 257.292969 132.691406 L 257.367188 132.804688 "/>
<path style=" stroke:none;fill-rule:nonzero;fill:rgb(55.688477%,46.669006%,76.469421%);fill-opacity:1;" d="M 228.128906 126.371094 C 228.257812 127.515625 227.4375 128.550781 226.292969 128.683594 C 225.152344 128.8125 224.121094 127.984375 223.992188 126.839844 C 223.863281 125.695312 224.683594 124.660156 225.828125 124.53125 C 226.96875 124.398438 228 125.226562 228.128906 126.371094 "/>
<path style=" stroke:none;fill-rule:nonzero;fill:rgb(91.758728%,61.178589%,46.269226%);fill-opacity:1;" d="M 257.097656 134.027344 C 257.121094 134.117188 257.085938 134.210938 257.003906 134.257812 C 249.347656 139.128906 242.972656 141.09375 242.910156 141.113281 C 242.796875 141.148438 242.679688 141.085938 242.644531 140.972656 C 242.609375 140.855469 242.671875 140.742188 242.785156 140.707031 C 242.847656 140.6875 249.171875 138.738281 256.777344 133.898438 C 256.878906 133.835938 257.007812 133.863281 257.070312 133.964844 L 257.097656 134.027344 "/>
<path style=" stroke:none;fill-rule:nonzero;fill:rgb(55.688477%,46.669006%,76.469421%);fill-opacity:1;" d="M 244.25 139.363281 C 245.125 140.113281 245.234375 141.429688 244.488281 142.3125 C 243.746094 143.191406 242.433594 143.296875 241.558594 142.550781 C 240.683594 141.804688 240.570312 140.488281 241.316406 139.605469 C 242.0625 138.726562 243.375 138.617188 244.25 139.363281 "/>
<path style=" stroke:none;fill-rule:nonzero;fill:rgb(91.758728%,61.178589%,46.269226%);fill-opacity:1;" d="M 256.152344 132.789062 L 256.136719 132.925781 C 256.089844 133.035156 255.960938 133.082031 255.855469 133.035156 C 248.167969 129.597656 238.046875 132.871094 237.945312 132.90625 C 237.835938 132.945312 237.714844 132.882812 237.679688 132.769531 C 237.644531 132.660156 237.703125 132.539062 237.816406 132.503906 C 237.917969 132.46875 248.1875 129.136719 256.027344 132.644531 C 256.089844 132.671875 256.136719 132.726562 256.152344 132.789062 "/>
<path style=" stroke:none;fill-rule:nonzero;fill:rgb(55.688477%,46.669006%,76.469421%);fill-opacity:1;" d="M 239.285156 131.160156 C 240.160156 131.90625 240.269531 133.222656 239.523438 134.105469 C 238.78125 134.984375 237.46875 135.089844 236.589844 134.34375 C 235.714844 133.601562 235.605469 132.28125 236.351562 131.402344 C 237.09375 130.523438 238.410156 130.414062 239.285156 131.160156 "/>
<path style=" stroke:none;fill-rule:nonzero;fill:rgb(91.758728%,61.178589%,46.269226%);fill-opacity:1;" d="M 257.195312 132.078125 C 257.207031 132.140625 257.195312 132.210938 257.152344 132.261719 C 257.078125 132.355469 256.945312 132.371094 256.851562 132.296875 C 252.660156 128.976562 250.183594 124.78125 249.0625 119.09375 C 249.039062 118.976562 249.117188 118.863281 249.230469 118.839844 C 249.347656 118.820312 249.460938 118.890625 249.480469 119.007812 C 250.582031 124.59375 253.007812 128.707031 257.117188 131.960938 L 257.195312 132.078125 "/>
<path style=" stroke:none;fill-rule:nonzero;fill:rgb(55.688477%,46.669006%,76.469421%);fill-opacity:1;" d="M 250.332031 119.695312 C 251.3125 119.09375 251.617188 117.808594 251.019531 116.824219 C 250.417969 115.839844 249.136719 115.53125 248.15625 116.132812 C 247.175781 116.734375 246.867188 118.019531 247.464844 119.003906 C 248.070312 119.988281 249.351562 120.300781 250.332031 119.695312 "/>
<path style=" stroke:none;fill-rule:nonzero;fill:rgb(91.758728%,61.178589%,46.269226%);fill-opacity:1;" d="M 254.136719 131.125 L 254.128906 131.253906 C 254.085938 131.367188 253.960938 131.417969 253.847656 131.371094 C 249.769531 129.710938 245.925781 130.023438 242.535156 130.292969 C 240.25 130.476562 238.089844 130.648438 236.257812 130.148438 C 236.144531 130.117188 236.078125 130 236.109375 129.890625 C 236.140625 129.773438 236.257812 129.707031 236.371094 129.738281 C 238.132812 130.21875 240.15625 130.054688 242.496094 129.867188 C 245.9375 129.585938 249.835938 129.277344 254.011719 130.976562 C 254.078125 131.003906 254.121094 131.058594 254.136719 131.125 "/>
<path style=" stroke:none;fill-rule:nonzero;fill:rgb(55.688477%,46.669006%,76.469421%);fill-opacity:1;" d="M 237.363281 129.277344 C 237.257812 128.128906 236.25 127.28125 235.105469 127.382812 C 233.957031 127.484375 233.113281 128.5 233.214844 129.648438 C 233.316406 130.800781 234.328125 131.648438 235.472656 131.542969 C 236.617188 131.441406 237.464844 130.425781 237.363281 129.277344 "/>
<path style=" stroke:none;fill-rule:nonzero;fill:rgb(91.758728%,61.178589%,46.269226%);fill-opacity:1;" d="M 256.113281 132.648438 C 256.136719 132.730469 256.105469 132.820312 256.035156 132.871094 C 255.941406 132.941406 255.808594 132.921875 255.738281 132.828125 C 252.574219 128.550781 248.9375 127.449219 245.730469 126.480469 C 243.316406 125.75 241.035156 125.0625 239.382812 123.113281 C 239.308594 123.023438 239.320312 122.886719 239.410156 122.8125 C 239.5 122.734375 239.632812 122.746094 239.710938 122.835938 C 241.277344 124.691406 243.398438 125.332031 245.855469 126.074219 C 249.125 127.0625 252.832031 128.183594 256.078125 132.570312 L 256.113281 132.648438 "/>
<path style=" stroke:none;fill-rule:nonzero;fill:rgb(55.688477%,46.669006%,76.469421%);fill-opacity:1;" d="M 241.179688 123.246094 C 241.078125 122.097656 240.066406 121.246094 238.921875 121.351562 C 237.773438 121.453125 236.929688 122.46875 237.03125 123.617188 C 237.132812 124.765625 238.144531 125.613281 239.289062 125.511719 C 240.4375 125.410156 241.285156 124.390625 241.179688 123.246094 "/>
<path style=" stroke:none;fill-rule:nonzero;fill:rgb(46.669006%,60.389709%,50.19989%);fill-opacity:1;" d="M 255.015625 133.003906 C 256.421875 132.339844 257.707031 132.117188 257.890625 132.507812 C 258.074219 132.898438 257.085938 133.757812 255.683594 134.421875 C 254.28125 135.085938 252.996094 135.308594 252.8125 134.914062 C 252.628906 134.523438 253.613281 133.667969 255.015625 133.003906 "/>
<path style=" stroke:none;fill-rule:nonzero;fill:rgb(46.669006%,60.389709%,50.19989%);fill-opacity:1;" d="M 254.828125 131.804688 C 256.332031 131.421875 257.632812 131.453125 257.742188 131.871094 C 257.851562 132.292969 256.714844 132.941406 255.210938 133.324219 C 253.707031 133.707031 252.402344 133.675781 252.296875 133.253906 C 252.191406 132.835938 253.324219 132.183594 254.828125 131.804688 "/>
<path style=" stroke:none;fill-rule:nonzero;fill:rgb(46.669006%,60.389709%,50.19989%);fill-opacity:1;" d="M 254.671875 130.660156 C 256.210938 130.472656 257.5 130.667969 257.550781 131.097656 C 257.605469 131.53125 256.398438 132.027344 254.855469 132.210938 C 253.316406 132.398438 252.027344 132.199219 251.976562 131.769531 C 251.925781 131.339844 253.132812 130.84375 254.671875 130.660156 "/>
<path style=" stroke:none;fill-rule:nonzero;fill:rgb(46.669006%,60.389709%,50.19989%);fill-opacity:1;" d="M 254.566406 129.402344 C 256.117188 129.449219 257.363281 129.84375 257.347656 130.277344 C 257.332031 130.710938 256.066406 131.019531 254.515625 130.96875 C 252.964844 130.917969 251.71875 130.523438 251.738281 130.09375 C 251.75 129.660156 253.015625 129.351562 254.566406 129.402344 "/>
<path style=" stroke:none;fill-rule:nonzero;fill:rgb(46.669006%,60.389709%,50.19989%);fill-opacity:1;" d="M 254.617188 128.339844 C 256.128906 128.671875 257.285156 129.285156 257.195312 129.707031 C 257.101562 130.128906 255.800781 130.203125 254.285156 129.871094 C 252.769531 129.542969 251.613281 128.933594 251.707031 128.511719 C 251.796875 128.085938 253.101562 128.011719 254.617188 128.339844 "/>
<path style=" stroke:none;fill-rule:nonzero;fill:rgb(46.669006%,60.389709%,50.19989%);fill-opacity:1;" d="M 254.761719 127.347656 C 256.1875 127.957031 257.210938 128.773438 257.039062 129.171875 C 256.871094 129.574219 255.574219 129.402344 254.148438 128.789062 C 252.722656 128.179688 251.703125 127.367188 251.871094 126.96875 C 252.042969 126.570312 253.332031 126.738281 254.761719 127.347656 "/>
<path style=" stroke:none;fill-rule:nonzero;fill:rgb(46.669006%,60.389709%,50.19989%);fill-opacity:1;" d="M 256.050781 135.535156 C 257.402344 134.777344 258.332031 133.859375 258.121094 133.480469 C 257.910156 133.101562 256.640625 133.410156 255.289062 134.164062 C 253.933594 134.925781 253.007812 135.84375 253.21875 136.222656 C 253.429688 136.601562 254.695312 136.292969 256.050781 135.535156 "/>
<path style=" stroke:none;fill-rule:nonzero;fill:rgb(46.669006%,60.389709%,50.19989%);fill-opacity:1;" d="M 256.574219 136.453125 C 257.773438 135.464844 258.523438 134.394531 258.246094 134.054688 C 257.96875 133.722656 256.777344 134.253906 255.585938 135.242188 C 254.386719 136.234375 253.636719 137.308594 253.914062 137.644531 C 254.1875 137.976562 255.378906 137.445312 256.574219 136.453125 "/>
<path style=" stroke:none;fill-rule:nonzero;fill:rgb(46.669006%,60.389709%,50.19989%);fill-opacity:1;" d="M 257.160156 137.269531 C 258.152344 136.074219 258.6875 134.878906 258.351562 134.601562 C 258.019531 134.324219 256.949219 135.074219 255.957031 136.269531 C 254.96875 137.46875 254.433594 138.664062 254.765625 138.941406 C 255.097656 139.214844 256.167969 138.464844 257.160156 137.269531 "/>
<path style=" stroke:none;fill-rule:nonzero;fill:rgb(46.669006%,60.389709%,50.19989%);fill-opacity:1;" d="M 258.175781 137.621094 C 258.984375 136.292969 259.335938 135.035156 258.96875 134.808594 C 258.597656 134.585938 257.644531 135.480469 256.84375 136.808594 C 256.039062 138.140625 255.683594 139.398438 256.050781 139.625 C 256.421875 139.851562 257.375 138.953125 258.175781 137.621094 "/>
<path style=" stroke:none;fill-rule:nonzero;fill:rgb(46.669006%,60.389709%,50.19989%);fill-opacity:1;" d="M 258.292969 137.101562 C 258.292969 137.101562 260.113281 135.097656 259.175781 131.230469 L 255.933594 132.023438 L 258.292969 137.101562 "/>
<path style=" stroke:none;fill-rule:nonzero;fill:rgb(46.669006%,60.389709%,50.19989%);fill-opacity:1;" d="M 255.484375 126.488281 C 256.808594 127.300781 257.699219 128.257812 257.472656 128.628906 C 257.246094 129 255.996094 128.636719 254.671875 127.828125 C 253.347656 127.015625 252.457031 126.054688 252.679688 125.6875 C 252.910156 125.316406 254.164062 125.675781 255.484375 126.488281 "/>
<path style=" stroke:none;fill-rule:nonzero;fill:rgb(46.669006%,60.389709%,50.19989%);fill-opacity:1;" d="M 255.828125 126.902344 C 255.828125 126.902344 258.125 127.699219 259.175781 131.230469 L 256.050781 132.5 L 255.828125 126.902344 "/>
<path style=" stroke:none;fill-rule:nonzero;fill:rgb(91.758728%,61.178589%,46.269226%);fill-opacity:1;" d="M 236.683594 94.71875 C 236.628906 94.851562 236.492188 94.941406 236.34375 94.925781 C 218.105469 93.210938 211.527344 94.71875 206.722656 95.816406 C 202.785156 96.714844 200.1875 97.3125 193.585938 95.628906 C 193.40625 95.582031 193.300781 95.398438 193.347656 95.21875 C 193.390625 95.042969 193.578125 94.929688 193.753906 94.976562 C 200.195312 96.617188 202.726562 96.035156 206.574219 95.15625 C 211.417969 94.046875 218.058594 92.53125 236.40625 94.253906 C 236.589844 94.269531 236.726562 94.433594 236.707031 94.621094 L 236.683594 94.71875 "/>
<path style=" stroke:none;fill-rule:nonzero;fill:rgb(55.688477%,67.83905%,64.709473%);fill-opacity:1;" d="M 195.660156 93.398438 C 196.742188 94.460938 196.765625 96.207031 195.707031 97.296875 C 194.648438 98.386719 192.910156 98.40625 191.824219 97.34375 C 190.738281 96.28125 190.71875 94.535156 191.777344 93.445312 C 192.835938 92.359375 194.574219 92.335938 195.660156 93.398438 "/>
<path style=" stroke:none;fill-rule:nonzero;fill:rgb(91.758728%,61.178589%,46.269226%);fill-opacity:1;" d="M 235.9375 96.867188 C 235.917969 96.921875 235.878906 96.972656 235.832031 97.007812 C 233.210938 99.007812 227.984375 98.664062 222.445312 98.300781 C 216.015625 97.875 208.722656 97.394531 204.933594 100.710938 C 204.789062 100.832031 204.578125 100.816406 204.453125 100.675781 C 204.332031 100.535156 204.347656 100.324219 204.488281 100.203125 C 208.488281 96.703125 215.925781 97.195312 222.488281 97.625 C 227.898438 97.980469 233.003906 98.316406 235.421875 96.472656 C 235.574219 96.355469 235.785156 96.386719 235.898438 96.535156 C 235.972656 96.632812 235.984375 96.761719 235.9375 96.867188 "/>
<path style=" stroke:none;fill-rule:nonzero;fill:rgb(70.199585%,44.709778%,69.40918%);fill-opacity:1;" d="M 207.308594 99.558594 C 206.867188 98.105469 205.335938 97.28125 203.882812 97.726562 C 202.433594 98.167969 201.613281 99.707031 202.054688 101.164062 C 202.496094 102.621094 204.03125 103.441406 205.480469 102.996094 C 206.929688 102.554688 207.75 101.015625 207.308594 99.558594 "/>
<path style=" stroke:none;fill-rule:nonzero;fill:rgb(91.758728%,61.178589%,46.269226%);fill-opacity:1;" d="M 236.445312 93.136719 C 236.390625 93.273438 236.246094 93.359375 236.089844 93.339844 C 231.21875 92.710938 225.960938 92.167969 220.882812 91.636719 C 212.363281 90.753906 204.316406 89.917969 199.402344 88.8125 C 195.667969 87.972656 192.789062 86.96875 190.34375 85.652344 C 190.179688 85.566406 190.117188 85.359375 190.207031 85.195312 C 190.292969 85.03125 190.496094 84.96875 190.660156 85.058594 C 193.050781 86.34375 195.878906 87.328125 199.550781 88.152344 C 204.421875 89.25 212.453125 90.085938 220.953125 90.964844 C 226.039062 91.492188 231.292969 92.039062 236.179688 92.667969 C 236.359375 92.691406 236.492188 92.863281 236.46875 93.046875 L 236.445312 93.136719 "/>
<g clip-path="url(#clip3)" clip-rule="nonzero">
<path style=" stroke:none;fill-rule:nonzero;fill:rgb(55.688477%,67.83905%,64.709473%);fill-opacity:1;" d="M 193.171875 86 C 193.582031 84.535156 192.726562 83.015625 191.265625 82.605469 C 189.800781 82.199219 188.289062 83.054688 187.882812 84.523438 C 187.476562 85.988281 188.332031 87.507812 189.792969 87.917969 C 191.25 88.324219 192.765625 87.464844 193.171875 86 "/>
</g>
<path style=" stroke:none;fill-rule:nonzero;fill:rgb(91.758728%,61.178589%,46.269226%);fill-opacity:1;" d="M 232.515625 91.539062 C 232.460938 91.679688 232.316406 91.765625 232.160156 91.742188 C 230.3125 91.484375 228.828125 90.554688 227.394531 89.652344 C 226.074219 88.941406 224.316406 87.90625 222.285156 86.707031 C 213.652344 81.613281 199.207031 73.085938 192.066406 74.875 C 191.890625 74.917969 191.707031 74.808594 191.660156 74.628906 C 191.617188 74.449219 191.722656 74.261719 191.90625 74.21875 C 199.316406 72.363281 213.34375 80.644531 222.628906 86.125 C 224.652344 87.320312 226.402344 88.355469 227.730469 89.0625 C 229.191406 89.984375 230.550781 90.835938 232.253906 91.074219 C 232.441406 91.101562 232.566406 91.273438 232.539062 91.457031 L 232.515625 91.539062 "/>
<path style=" stroke:none;fill-rule:nonzero;fill:rgb(55.688477%,67.83905%,64.709473%);fill-opacity:1;" d="M 194.621094 75.335938 C 195.105469 73.894531 194.335938 72.332031 192.898438 71.84375 C 191.460938 71.355469 189.902344 72.128906 189.421875 73.570312 C 188.933594 75.015625 189.703125 76.578125 191.140625 77.0625 C 192.574219 77.550781 194.132812 76.777344 194.621094 75.335938 "/>
<path style=" stroke:none;fill-rule:nonzero;fill:rgb(91.758728%,61.178589%,46.269226%);fill-opacity:1;" d="M 233.785156 89.417969 C 233.753906 89.496094 233.691406 89.5625 233.613281 89.597656 C 233.4375 89.675781 233.242188 89.59375 233.167969 89.421875 C 231.859375 86.417969 229.402344 85.460938 224.949219 83.722656 C 221.367188 82.320312 216.457031 80.40625 209.917969 76.503906 C 205.246094 73.710938 202.464844 70.355469 201.878906 66.789062 C 201.851562 66.605469 201.972656 66.429688 202.15625 66.402344 C 202.339844 66.367188 202.511719 66.496094 202.546875 66.679688 C 203.089844 69.992188 205.832031 73.277344 210.265625 75.925781 C 216.753906 79.796875 221.632812 81.703125 225.195312 83.09375 C 229.664062 84.835938 232.363281 85.890625 233.785156 89.152344 C 233.824219 89.242188 233.820312 89.335938 233.785156 89.417969 "/>
<path style=" stroke:none;fill-rule:nonzero;fill:rgb(70.199585%,44.709778%,69.40918%);fill-opacity:1;" d="M 204.148438 68.691406 C 203.105469 69.800781 201.367188 69.855469 200.261719 68.808594 C 199.160156 67.769531 199.109375 66.027344 200.144531 64.917969 C 201.183594 63.808594 202.921875 63.753906 204.027344 64.800781 C 205.128906 65.84375 205.183594 67.585938 204.148438 68.691406 "/>
<path style=" stroke:none;fill-rule:nonzero;fill:rgb(91.758728%,61.178589%,46.269226%);fill-opacity:1;" d="M 239.480469 86.429688 C 239.4375 86.527344 239.359375 86.601562 239.253906 86.628906 C 239.070312 86.675781 238.886719 86.566406 238.84375 86.386719 C 236.820312 78.429688 219.859375 65.511719 212.660156 60.324219 C 212.507812 60.214844 212.476562 60.003906 212.582031 59.855469 C 212.691406 59.703125 212.902344 59.667969 213.050781 59.777344 C 222.070312 66.269531 237.496094 78.34375 239.496094 86.21875 C 239.515625 86.292969 239.507812 86.367188 239.480469 86.429688 "/>
<path style=" stroke:none;fill-rule:nonzero;fill:rgb(70.199585%,44.709778%,69.40918%);fill-opacity:1;" d="M 214.957031 61.824219 C 214.023438 63.023438 212.296875 63.234375 211.101562 62.300781 C 209.910156 61.359375 209.699219 59.628906 210.632812 58.429688 C 211.566406 57.230469 213.292969 57.019531 214.484375 57.957031 C 215.683594 58.894531 215.890625 60.628906 214.957031 61.824219 "/>
<path style=" stroke:none;fill-rule:nonzero;fill:rgb(91.758728%,61.178589%,46.269226%);fill-opacity:1;" d="M 229.269531 90.441406 C 229.199219 90.613281 229 90.695312 228.828125 90.625 C 224.1875 88.667969 219.234375 87.65625 214.445312 86.675781 C 207.621094 85.277344 201.179688 83.957031 195.5625 80.164062 C 195.40625 80.058594 195.367188 79.847656 195.46875 79.695312 C 195.574219 79.539062 195.785156 79.496094 195.9375 79.601562 C 201.441406 83.324219 207.824219 84.628906 214.582031 86.011719 C 219.402344 87 224.386719 88.023438 229.089844 90 C 229.261719 90.070312 229.339844 90.269531 229.269531 90.441406 "/>
<path style=" stroke:none;fill-rule:nonzero;fill:rgb(70.199585%,44.709778%,69.40918%);fill-opacity:1;" d="M 198.445312 79.34375 C 198.792969 80.824219 197.878906 82.308594 196.402344 82.660156 C 194.929688 83.007812 193.449219 82.089844 193.101562 80.613281 C 192.75 79.132812 193.664062 77.648438 195.140625 77.296875 C 196.617188 76.945312 198.09375 77.863281 198.445312 79.34375 "/>
<path style=" stroke:none;fill-rule:nonzero;fill:rgb(91.758728%,61.178589%,46.269226%);fill-opacity:1;" d="M 232.128906 85.480469 C 232.09375 85.5625 232.027344 85.632812 231.9375 85.667969 C 231.761719 85.730469 231.570312 85.644531 231.503906 85.46875 C 230.136719 81.878906 221.78125 75.636719 215.683594 71.078125 C 212.707031 68.851562 210.128906 66.929688 208.785156 65.65625 C 208.652344 65.527344 208.644531 65.3125 208.773438 65.175781 C 208.902344 65.042969 209.113281 65.035156 209.25 65.164062 C 210.566406 66.410156 213.125 68.320312 216.085938 70.535156 C 222.597656 75.402344 230.695312 81.453125 232.132812 85.226562 C 232.164062 85.3125 232.164062 85.402344 232.128906 85.480469 "/>
<path style=" stroke:none;fill-rule:nonzero;fill:rgb(55.688477%,67.83905%,64.709473%);fill-opacity:1;" d="M 211.6875 66.054688 C 211.386719 67.542969 209.9375 68.507812 208.453125 68.207031 C 206.96875 67.90625 206.007812 66.453125 206.308594 64.960938 C 206.609375 63.46875 208.058594 62.503906 209.542969 62.804688 C 211.027344 63.109375 211.992188 64.558594 211.6875 66.054688 "/>
<path style=" stroke:none;fill-rule:nonzero;fill:rgb(55.688477%,46.669006%,76.469421%);fill-opacity:1;" d="M 231.664062 79.664062 C 231.664062 79.664062 221.71875 74.890625 217.859375 84.132812 C 214 93.375 224.363281 97.140625 224.363281 97.140625 C 216.230469 96.183594 214.84375 107.707031 229.601562 108.175781 C 248.402344 108.769531 244.390625 95.289062 244.390625 95.289062 C 244.390625 95.289062 256.632812 89.0625 243.175781 75.675781 C 232.691406 65.242188 225.277344 74.519531 231.664062 79.664062 "/>
<path style=" stroke:none;fill-rule:nonzero;fill:rgb(46.669006%,60.389709%,50.19989%);fill-opacity:1;" d="M 243.277344 96.007812 C 245.367188 96.097656 246.839844 96.941406 246.5625 97.894531 C 246.285156 98.847656 244.367188 99.550781 242.273438 99.460938 C 240.179688 99.375 238.710938 98.535156 238.988281 97.578125 C 239.265625 96.625 241.183594 95.921875 243.277344 96.007812 "/>
<path style=" stroke:none;fill-rule:nonzero;fill:rgb(46.669006%,60.389709%,50.19989%);fill-opacity:1;" d="M 244.476562 93.460938 C 246.339844 94.203125 247.535156 95.5625 247.152344 96.492188 C 246.773438 97.425781 244.953125 97.578125 243.089844 96.832031 C 241.226562 96.085938 240.03125 94.726562 240.410156 93.796875 C 240.792969 92.867188 242.613281 92.714844 244.476562 93.460938 "/>
<path style=" stroke:none;fill-rule:nonzero;fill:rgb(46.669006%,60.389709%,50.19989%);fill-opacity:1;" d="M 245.652344 91.046875 C 247.320312 92.214844 248.3125 93.886719 247.867188 94.785156 C 247.421875 95.679688 245.703125 95.460938 244.035156 94.292969 C 242.363281 93.128906 241.371094 91.457031 241.816406 90.558594 C 242.261719 89.660156 243.980469 89.878906 245.652344 91.046875 "/>
<path style=" stroke:none;fill-rule:nonzero;fill:rgb(46.669006%,60.389709%,50.19989%);fill-opacity:1;" d="M 246.996094 88.46875 C 248.402344 90.109375 249.132812 92.121094 248.621094 92.960938 C 248.109375 93.796875 246.554688 93.144531 245.144531 91.5 C 243.734375 89.859375 243.007812 87.847656 243.519531 87.007812 C 244.035156 86.171875 245.589844 86.824219 246.996094 88.46875 "/>
<path style=" stroke:none;fill-rule:nonzero;fill:rgb(46.669006%,60.389709%,50.19989%);fill-opacity:1;" d="M 248.257812 86.433594 C 249.316406 88.589844 249.703125 90.941406 249.132812 91.679688 C 248.554688 92.425781 247.238281 91.277344 246.1875 89.117188 C 245.128906 86.960938 244.738281 84.609375 245.316406 83.867188 C 245.890625 83.125 247.207031 84.273438 248.257812 86.433594 "/>
<path style=" stroke:none;fill-rule:nonzero;fill:rgb(46.669006%,60.389709%,50.19989%);fill-opacity:1;" d="M 249.542969 84.621094 C 250.191406 87.238281 250.21875 89.863281 249.597656 90.480469 C 248.980469 91.09375 247.953125 89.472656 247.304688 86.851562 C 246.65625 84.234375 246.628906 81.613281 247.25 80.996094 C 247.867188 80.375 248.894531 82 249.542969 84.621094 "/>
<path style=" stroke:none;fill-rule:nonzero;fill:rgb(46.669006%,60.389709%,50.19989%);fill-opacity:1;" d="M 241.335938 102.019531 C 243.492188 101.875 245.425781 100.984375 245.664062 100.035156 C 245.902344 99.078125 244.34375 98.425781 242.191406 98.570312 C 240.035156 98.714844 238.101562 99.605469 237.863281 100.558594 C 237.625 101.511719 239.179688 102.167969 241.335938 102.019531 "/>
<path style=" stroke:none;fill-rule:nonzero;fill:rgb(46.669006%,60.389709%,50.19989%);fill-opacity:1;" d="M 240.777344 104.355469 C 243.050781 103.59375 244.992188 102.226562 245.117188 101.292969 C 245.242188 100.363281 243.5 100.226562 241.230469 100.984375 C 238.957031 101.742188 237.011719 103.113281 236.886719 104.042969 C 236.761719 104.976562 238.507812 105.113281 240.777344 104.355469 "/>
<path style=" stroke:none;fill-rule:nonzero;fill:rgb(46.669006%,60.389709%,50.19989%);fill-opacity:1;" d="M 240.390625 106.542969 C 242.703125 105.167969 244.585938 103.347656 244.589844 102.472656 C 244.59375 101.597656 242.71875 102 240.402344 103.375 C 238.085938 104.746094 236.207031 106.566406 236.203125 107.441406 C 236.199219 108.316406 238.070312 107.914062 240.390625 106.542969 "/>
<path style=" stroke:none;fill-rule:nonzero;fill:rgb(46.669006%,60.389709%,50.19989%);fill-opacity:1;" d="M 240.945312 108.246094 C 243.238281 106.429688 245.023438 104.300781 244.929688 103.492188 C 244.84375 102.683594 242.914062 103.5 240.617188 105.316406 C 238.328125 107.136719 236.539062 109.265625 236.632812 110.074219 C 236.722656 110.882812 238.652344 110.066406 240.945312 108.246094 "/>
<path style=" stroke:none;fill-rule:nonzero;fill:rgb(46.669006%,60.389709%,50.19989%);fill-opacity:1;" d="M 241.660156 107.332031 C 241.660156 107.332031 245.679688 105.203125 249.25 96.660156 L 245.277344 94.992188 L 241.660156 107.332031 "/>
<path style=" stroke:none;fill-rule:nonzero;fill:rgb(46.669006%,60.389709%,50.19989%);fill-opacity:1;" d="M 251.21875 83.652344 C 251.535156 86.5625 251.277344 89.335938 250.636719 89.839844 C 250 90.339844 249.226562 88.386719 248.90625 85.46875 C 248.59375 82.554688 248.855469 79.78125 249.492188 79.28125 C 250.128906 78.773438 250.90625 80.734375 251.21875 83.652344 "/>
<path style=" stroke:none;fill-rule:nonzero;fill:rgb(46.669006%,60.389709%,50.19989%);fill-opacity:1;" d="M 251.066406 84.800781 C 251.066406 84.800781 252.324219 88.652344 249.25 96.660156 L 244.835938 96.042969 L 251.066406 84.800781 "/>
<path style=" stroke:none;fill-rule:nonzero;fill:rgb(91.758728%,61.178589%,46.269226%);fill-opacity:1;" d="M 281.210938 190.59375 C 280.902344 190.339844 280.777344 189.910156 280.921875 189.511719 C 281.210938 188.726562 288.164062 170.050781 300.191406 162.253906 C 300.640625 161.964844 301.238281 162.09375 301.527344 162.542969 C 301.816406 162.992188 301.6875 163.589844 301.242188 163.878906 C 289.753906 171.324219 282.800781 189.996094 282.734375 190.183594 C 282.546875 190.683594 281.992188 190.941406 281.492188 190.753906 C 281.390625 190.71875 281.296875 190.664062 281.210938 190.59375 "/>
<path style=" stroke:none;fill-rule:nonzero;fill:rgb(91.758728%,61.178589%,46.269226%);fill-opacity:1;" d="M 260.949219 236.617188 C 260.660156 236.375 260.523438 235.972656 260.644531 235.585938 C 260.707031 235.378906 266.992188 214.609375 260.613281 201.628906 C 260.378906 201.152344 260.574219 200.570312 261.050781 200.335938 C 261.53125 200.097656 262.105469 200.296875 262.34375 200.773438 C 269.066406 214.453125 262.753906 235.277344 262.488281 236.15625 C 262.328125 236.667969 261.785156 236.953125 261.277344 236.796875 C 261.15625 236.757812 261.046875 236.695312 260.949219 236.617188 "/>
<g clip-path="url(#clip4)" clip-rule="nonzero">
<path style=" stroke:none;fill-rule:nonzero;fill:rgb(46.669006%,60.389709%,50.19989%);fill-opacity:1;" d="M 317.847656 151.660156 C 308.789062 154.707031 304.941406 148.152344 296.457031 153.4375 C 288.882812 158.15625 295.949219 165.289062 297.582031 164.273438 C 295.695312 165.449219 299.324219 174.726562 306.753906 170.101562 C 315.242188 164.820312 311.101562 158.449219 317.847656 151.660156 "/>
</g>
<g clip-path="url(#clip5)" clip-rule="nonzero">
<path style=" stroke:none;fill-rule:nonzero;fill:rgb(30.198669%,22.349548%,17.248535%);fill-opacity:1;" d="M 317.652344 151.785156 C 316.144531 153.101562 314.578125 154.355469 312.910156 155.480469 C 312.082031 156.046875 311.203125 156.558594 310.292969 156.992188 C 309.382812 157.425781 308.464844 157.816406 307.546875 158.214844 C 306.632812 158.609375 305.71875 159.007812 304.828125 159.445312 C 303.933594 159.875 303.058594 160.347656 302.242188 160.898438 C 301.839844 161.175781 301.441406 161.488281 301.035156 161.777344 L 299.820312 162.664062 C 299.007812 163.242188 298.203125 163.835938 297.375 164.402344 C 298.910156 163.113281 300.445312 161.839844 302.039062 160.609375 C 303.6875 159.417969 305.542969 158.605469 307.371094 157.804688 C 309.210938 157.011719 311.054688 156.277344 312.71875 155.1875 C 313.566406 154.65625 314.390625 154.097656 315.210938 153.527344 C 316.035156 152.964844 316.839844 152.375 317.652344 151.785156 "/>
</g>
<path style=" stroke:none;fill-rule:nonzero;fill:rgb(30.198669%,22.349548%,17.248535%);fill-opacity:1;" d="M 310.570312 153.5625 C 310.101562 153.769531 309.660156 154.027344 309.253906 154.328125 C 308.851562 154.628906 308.484375 154.976562 308.191406 155.371094 C 307.898438 155.765625 307.667969 156.203125 307.539062 156.671875 C 307.402344 157.140625 307.363281 157.632812 307.394531 158.121094 L 307.175781 157.914062 C 307.605469 157.921875 308.019531 157.964844 308.4375 158.035156 C 308.851562 158.113281 309.261719 158.210938 309.660156 158.367188 C 310.054688 158.515625 310.441406 158.714844 310.773438 158.988281 C 311.101562 159.261719 311.367188 159.628906 311.460938 160.039062 C 311.273438 159.664062 310.984375 159.378906 310.640625 159.167969 C 310.304688 158.953125 309.933594 158.8125 309.546875 158.695312 C 309.167969 158.59375 308.769531 158.503906 308.371094 158.453125 C 307.972656 158.398438 307.566406 158.363281 307.171875 158.355469 L 306.960938 158.355469 L 306.953125 158.148438 C 306.921875 157.617188 306.972656 157.070312 307.136719 156.546875 C 307.300781 156.035156 307.570312 155.554688 307.921875 155.152344 C 308.265625 154.742188 308.6875 154.414062 309.132812 154.148438 C 309.589844 153.886719 310.066406 153.675781 310.570312 153.5625 "/>
<path style=" stroke:none;fill-rule:nonzero;fill:rgb(30.198669%,22.349548%,17.248535%);fill-opacity:1;" d="M 303.007812 152.089844 C 302.488281 152.683594 302.183594 153.449219 302.183594 154.21875 C 302.179688 154.597656 302.242188 154.980469 302.359375 155.339844 C 302.417969 155.523438 302.488281 155.699219 302.570312 155.871094 C 302.65625 156.046875 302.746094 156.25 302.804688 156.441406 C 303.058594 157.234375 303.050781 158.089844 302.882812 158.890625 C 302.703125 159.695312 302.398438 160.449219 301.953125 161.152344 L 301.746094 160.804688 C 302.578125 160.761719 303.386719 160.796875 304.195312 160.953125 C 304.59375 161.03125 304.996094 161.144531 305.382812 161.308594 C 305.570312 161.390625 305.757812 161.488281 305.933594 161.601562 C 306.117188 161.714844 306.28125 161.863281 306.425781 161.976562 C 307.035156 162.457031 307.742188 162.828125 308.511719 162.984375 C 309.269531 163.148438 310.089844 163.105469 310.835938 162.824219 C 310.484375 163.011719 310.089844 163.125 309.6875 163.183594 C 309.289062 163.242188 308.878906 163.246094 308.46875 163.191406 C 307.660156 163.078125 306.886719 162.734375 306.21875 162.25 C 306.046875 162.128906 305.910156 162.007812 305.742188 161.914062 C 305.582031 161.820312 305.410156 161.738281 305.230469 161.664062 C 304.878906 161.523438 304.5 161.429688 304.117188 161.363281 C 303.355469 161.234375 302.558594 161.195312 301.789062 161.253906 L 301.347656 161.277344 L 301.585938 160.902344 C 301.984375 160.269531 302.296875 159.539062 302.46875 158.796875 C 302.640625 158.058594 302.660156 157.277344 302.460938 156.546875 C 302.410156 156.363281 302.347656 156.195312 302.265625 156.007812 C 302.1875 155.820312 302.117188 155.625 302.066406 155.425781 C 301.960938 155.03125 301.921875 154.613281 301.953125 154.203125 C 301.988281 153.796875 302.109375 153.398438 302.285156 153.035156 C 302.46875 152.675781 302.703125 152.347656 303.007812 152.089844 "/>
<path style=" stroke:none;fill-rule:nonzero;fill:rgb(30.198669%,22.349548%,17.248535%);fill-opacity:1;" d="M 296.980469 155.136719 C 296.691406 155.84375 296.46875 156.578125 296.421875 157.320312 C 296.371094 158.0625 296.507812 158.8125 296.859375 159.445312 C 297.203125 160.089844 297.742188 160.605469 298.347656 161.023438 C 298.953125 161.433594 299.640625 161.753906 300.332031 161.960938 L 300.492188 162.007812 L 300.496094 162.167969 C 300.519531 162.800781 300.59375 163.453125 300.710938 164.082031 C 300.835938 164.710938 301.007812 165.335938 301.273438 165.914062 C 301.535156 166.492188 301.898438 167.03125 302.410156 167.40625 C 302.664062 167.597656 302.957031 167.738281 303.261719 167.824219 C 303.574219 167.902344 303.902344 167.9375 304.226562 167.921875 C 303.585938 168.039062 302.882812 167.929688 302.304688 167.570312 C 301.722656 167.210938 301.289062 166.652344 300.984375 166.054688 C 300.675781 165.457031 300.464844 164.816406 300.320312 164.164062 C 300.171875 163.507812 300.085938 162.855469 300.058594 162.171875 L 300.222656 162.386719 C 299.457031 162.167969 298.75 161.828125 298.101562 161.378906 C 297.453125 160.933594 296.886719 160.335938 296.53125 159.617188 C 296.355469 159.257812 296.238281 158.867188 296.179688 158.476562 C 296.121094 158.085938 296.132812 157.683594 296.1875 157.296875 C 296.308594 156.523438 296.597656 155.796875 296.980469 155.136719 "/>
<path style=" stroke:none;fill-rule:nonzero;fill:rgb(46.669006%,60.389709%,50.19989%);fill-opacity:1;" d="M 252.804688 180.789062 C 252.757812 189.742188 246.773438 196.980469 251.171875 205.425781 C 254.464844 211.742188 264.449219 209.792969 264.449219 209.792969 C 264.449219 209.792969 272.992188 204.253906 271 197.410156 C 268.335938 188.265625 258.074219 186.085938 252.804688 180.789062 "/>
<path style=" stroke:none;fill-rule:nonzero;fill:rgb(30.198669%,22.349548%,17.248535%);fill-opacity:1;" d="M 252.804688 180.789062 C 253.917969 183.148438 254.988281 185.523438 256.003906 187.921875 C 257.039062 190.316406 258.027344 192.726562 259.003906 195.136719 C 259.964844 197.558594 260.921875 199.984375 261.832031 202.425781 C 262.753906 204.859375 263.625 207.320312 264.449219 209.792969 C 263.335938 207.4375 262.265625 205.058594 261.246094 202.660156 C 260.21875 200.269531 259.230469 197.855469 258.253906 195.441406 C 257.289062 193.023438 256.335938 190.597656 255.425781 188.15625 C 254.503906 185.71875 253.628906 183.265625 252.804688 180.789062 "/>
<path style=" stroke:none;fill-rule:nonzero;fill:rgb(30.198669%,22.349548%,17.248535%);fill-opacity:1;" d="M 253.0625 190.078125 C 253.335938 190.386719 253.664062 190.625 254.003906 190.824219 C 254.339844 191.027344 254.699219 191.179688 255.066406 191.304688 C 255.800781 191.550781 256.570312 191.648438 257.351562 191.675781 L 256.949219 191.988281 C 257.058594 191.464844 257.214844 190.976562 257.417969 190.484375 C 257.621094 189.996094 257.867188 189.511719 258.296875 189.085938 C 258.5625 188.890625 258.644531 188.402344 258.636719 187.925781 C 258.636719 187.441406 258.5625 186.941406 258.476562 186.4375 C 258.746094 186.875 258.945312 187.355469 259.0625 187.875 C 259.113281 188.136719 259.152344 188.410156 259.128906 188.699219 C 259.113281 188.84375 259.085938 188.996094 259.027344 189.144531 C 258.980469 189.285156 258.859375 189.46875 258.773438 189.566406 C 258.5 189.875 258.316406 190.332031 258.144531 190.777344 C 257.976562 191.21875 257.839844 191.699219 257.71875 192.160156 L 257.71875 192.179688 C 257.667969 192.363281 257.5 192.480469 257.320312 192.472656 C 256.894531 192.453125 256.464844 192.398438 256.050781 192.292969 C 255.632812 192.195312 255.222656 192.050781 254.835938 191.851562 C 254.449219 191.660156 254.09375 191.40625 253.785156 191.113281 C 253.476562 190.816406 253.210938 190.472656 253.0625 190.078125 "/>
<path style=" stroke:none;fill-rule:nonzero;fill:rgb(30.198669%,22.349548%,17.248535%);fill-opacity:1;" d="M 251.519531 196.152344 C 251.996094 196.792969 252.621094 197.292969 253.289062 197.683594 C 253.960938 198.078125 254.6875 198.347656 255.433594 198.53125 C 256.183594 198.703125 256.949219 198.789062 257.71875 198.792969 C 258.492188 198.792969 259.269531 198.746094 260.035156 198.628906 L 259.695312 198.976562 C 259.769531 198.441406 259.910156 197.972656 260.113281 197.5 C 260.3125 197.03125 260.574219 196.582031 260.910156 196.183594 C 261.25 195.785156 261.675781 195.457031 262.152344 195.222656 C 262.273438 195.167969 262.394531 195.117188 262.511719 195.074219 L 262.839844 194.953125 C 263.039062 194.875 263.25 194.78125 263.445312 194.675781 C 264.226562 194.269531 264.867188 193.597656 265.109375 192.726562 C 265.359375 191.863281 265.261719 190.890625 264.96875 189.988281 C 265.4375 190.816406 265.675781 191.816406 265.511719 192.824219 C 265.421875 193.320312 265.214844 193.808594 264.910156 194.222656 C 264.597656 194.636719 264.199219 194.976562 263.773438 195.242188 C 263.554688 195.378906 263.335938 195.496094 263.105469 195.597656 L 262.765625 195.738281 C 262.664062 195.78125 262.570312 195.824219 262.476562 195.875 C 262.101562 196.070312 261.777344 196.355469 261.503906 196.683594 C 260.960938 197.34375 260.632812 198.234375 260.488281 199.074219 L 260.484375 199.097656 C 260.453125 199.273438 260.3125 199.402344 260.148438 199.421875 C 259.339844 199.527344 258.519531 199.59375 257.699219 199.542969 C 256.878906 199.5 256.058594 199.371094 255.273438 199.117188 C 254.484375 198.871094 253.734375 198.492188 253.078125 198 C 252.433594 197.5 251.859375 196.886719 251.519531 196.152344 "/>
<path style=" stroke:none;fill-rule:nonzero;fill:rgb(30.198669%,22.349548%,17.248535%);fill-opacity:1;" d="M 252.484375 202.84375 C 253.007812 203.667969 253.730469 204.359375 254.578125 204.75 C 255.417969 205.152344 256.375 205.1875 257.265625 204.964844 C 257.484375 204.914062 257.703125 204.835938 257.960938 204.765625 C 258.203125 204.703125 258.453125 204.648438 258.703125 204.601562 C 259.207031 204.519531 259.722656 204.480469 260.242188 204.503906 C 260.757812 204.53125 261.28125 204.628906 261.78125 204.8125 C 262.03125 204.90625 262.277344 205.023438 262.507812 205.164062 C 262.746094 205.308594 262.953125 205.445312 263.179688 205.691406 L 262.648438 205.617188 C 263.390625 205.105469 264.109375 204.480469 264.769531 203.835938 C 265.4375 203.1875 266.042969 202.480469 266.578125 201.722656 C 267.109375 200.964844 267.5625 200.144531 267.855469 199.261719 C 268.15625 198.386719 268.28125 197.441406 268.210938 196.484375 C 268.457031 197.410156 268.445312 198.414062 268.234375 199.367188 C 268.015625 200.324219 267.617188 201.238281 267.101562 202.066406 C 266.601562 202.90625 265.976562 203.664062 265.3125 204.375 C 264.632812 205.074219 263.910156 205.707031 263.101562 206.289062 C 262.941406 206.40625 262.722656 206.382812 262.59375 206.246094 L 262.570312 206.222656 C 262.464844 206.109375 262.273438 205.957031 262.09375 205.847656 C 261.910156 205.734375 261.710938 205.636719 261.503906 205.558594 C 261.089844 205.394531 260.644531 205.308594 260.191406 205.273438 C 259.734375 205.234375 259.273438 205.25 258.808594 205.308594 C 258.335938 205.367188 257.914062 205.480469 257.394531 205.585938 C 256.886719 205.679688 256.359375 205.703125 255.84375 205.621094 C 255.328125 205.542969 254.832031 205.363281 254.390625 205.105469 C 253.511719 204.570312 252.851562 203.753906 252.484375 202.84375 "/>
<path style=" stroke:none;fill-rule:nonzero;fill:rgb(91.758728%,61.178589%,46.269226%);fill-opacity:1;" d="M 279.492188 199.011719 C 279.28125 198.835938 279.144531 198.574219 279.140625 198.277344 C 279.140625 198.128906 278.863281 183.230469 271.992188 176.136719 C 271.621094 175.753906 271.628906 175.140625 272.007812 174.765625 C 272.390625 174.398438 273.003906 174.40625 273.375 174.785156 C 280.785156 182.4375 281.0625 197.609375 281.070312 198.253906 C 281.078125 198.789062 280.648438 199.226562 280.117188 199.230469 C 279.882812 199.234375 279.664062 199.152344 279.492188 199.011719 "/>
<path style=" stroke:none;fill-rule:nonzero;fill:rgb(46.669006%,60.389709%,50.19989%);fill-opacity:1;" d="M 262.632812 163.878906 C 264.503906 169.785156 262.105469 175.828125 266.796875 180.445312 C 270.304688 183.898438 276.464844 180.480469 276.464844 180.480469 C 276.464844 180.480469 280.910156 175.007812 278.140625 170.925781 C 274.445312 165.472656 267.230469 166.238281 262.632812 163.878906 "/>
<path style=" stroke:none;fill-rule:nonzero;fill:rgb(30.198669%,22.349548%,17.248535%);fill-opacity:1;" d="M 262.632812 163.878906 C 263.871094 165.191406 265.074219 166.527344 266.257812 167.890625 C 267.445312 169.246094 268.605469 170.621094 269.761719 172 C 270.910156 173.386719 272.054688 174.78125 273.171875 176.191406 C 274.296875 177.597656 275.394531 179.027344 276.464844 180.480469 C 275.226562 179.167969 274.019531 177.828125 272.839844 176.46875 C 271.652344 175.117188 270.492188 173.738281 269.335938 172.359375 C 268.183594 170.972656 267.039062 169.582031 265.921875 168.167969 C 264.800781 166.761719 263.703125 165.332031 262.632812 163.878906 "/>
<path style=" stroke:none;fill-rule:nonzero;fill:rgb(30.198669%,22.349548%,17.248535%);fill-opacity:1;" d="M 264.773438 169.941406 C 265.023438 170.082031 265.289062 170.171875 265.558594 170.230469 C 265.820312 170.289062 266.089844 170.316406 266.355469 170.320312 C 266.890625 170.324219 267.421875 170.222656 267.941406 170.074219 L 267.742188 170.363281 C 267.703125 169.996094 267.703125 169.640625 267.730469 169.273438 C 267.761719 168.910156 267.820312 168.539062 268.011719 168.171875 C 268.144531 167.980469 268.09375 167.640625 267.992188 167.328125 C 267.882812 167.011719 267.730469 166.695312 267.566406 166.382812 C 267.839844 166.613281 268.070312 166.886719 268.257812 167.207031 C 268.347656 167.367188 268.429688 167.539062 268.476562 167.730469 C 268.5 167.832031 268.511719 167.9375 268.503906 168.050781 C 268.503906 168.152344 268.464844 168.296875 268.425781 168.378906 C 268.316406 168.644531 268.289062 168.980469 268.269531 169.308594 C 268.253906 169.640625 268.269531 169.984375 268.289062 170.308594 L 268.289062 170.324219 C 268.292969 170.457031 268.210938 170.570312 268.085938 170.601562 C 267.804688 170.679688 267.511719 170.738281 267.214844 170.753906 C 266.917969 170.78125 266.617188 170.773438 266.324219 170.726562 C 266.027344 170.683594 265.738281 170.59375 265.472656 170.464844 C 265.207031 170.335938 264.957031 170.167969 264.773438 169.941406 "/>
<path style=" stroke:none;fill-rule:nonzero;fill:rgb(30.198669%,22.349548%,17.248535%);fill-opacity:1;" d="M 265.050781 174.265625 C 265.5 174.589844 266.019531 174.78125 266.542969 174.898438 C 267.066406 175.015625 267.601562 175.035156 268.132812 174.992188 C 268.664062 174.949219 269.1875 174.84375 269.699219 174.679688 C 270.203125 174.515625 270.707031 174.316406 271.183594 174.074219 L 271.035156 174.378906 C 270.96875 174.007812 270.960938 173.667969 270.996094 173.316406 C 271.027344 172.964844 271.105469 172.613281 271.242188 172.28125 C 271.378906 171.945312 271.59375 171.636719 271.855469 171.382812 C 271.917969 171.320312 271.988281 171.261719 272.0625 171.203125 L 272.25 171.058594 C 272.367188 170.960938 272.484375 170.855469 272.589844 170.746094 C 273.015625 170.308594 273.292969 169.730469 273.269531 169.105469 C 273.253906 168.484375 272.980469 167.863281 272.59375 167.332031 C 273.078125 167.777344 273.449219 168.386719 273.554688 169.082031 C 273.605469 169.429688 273.570312 169.792969 273.457031 170.132812 C 273.339844 170.46875 273.148438 170.777344 272.925781 171.046875 C 272.8125 171.183594 272.691406 171.308594 272.558594 171.425781 L 272.367188 171.589844 C 272.308594 171.636719 272.253906 171.6875 272.207031 171.738281 C 272 171.953125 271.847656 172.207031 271.738281 172.480469 C 271.519531 173.03125 271.496094 173.691406 271.578125 174.269531 L 271.578125 174.289062 C 271.597656 174.40625 271.53125 174.523438 271.429688 174.574219 C 270.921875 174.816406 270.390625 175.035156 269.839844 175.175781 C 269.289062 175.324219 268.722656 175.414062 268.152344 175.417969 C 267.582031 175.421875 267.007812 175.335938 266.472656 175.148438 C 265.9375 174.957031 265.429688 174.679688 265.050781 174.265625 "/>
<path style=" stroke:none;fill-rule:nonzero;fill:rgb(30.198669%,22.349548%,17.248535%);fill-opacity:1;" d="M 267.109375 178.464844 C 267.632812 178.898438 268.25 179.199219 268.890625 179.273438 C 269.53125 179.355469 270.167969 179.179688 270.707031 178.839844 C 270.839844 178.757812 270.964844 178.65625 271.121094 178.5625 C 271.269531 178.464844 271.421875 178.378906 271.578125 178.296875 C 271.890625 178.128906 272.222656 177.996094 272.566406 177.898438 C 272.917969 177.808594 273.28125 177.757812 273.648438 177.773438 C 273.835938 177.78125 274.015625 177.804688 274.199219 177.84375 C 274.390625 177.894531 274.554688 177.941406 274.757812 178.050781 L 274.390625 178.121094 C 274.769531 177.621094 275.113281 177.054688 275.410156 176.488281 C 275.710938 175.917969 275.957031 175.324219 276.152344 174.710938 C 276.335938 174.097656 276.460938 173.460938 276.46875 172.820312 C 276.476562 172.175781 276.359375 171.527344 276.109375 170.914062 C 276.472656 171.472656 276.671875 172.136719 276.738281 172.808594 C 276.796875 173.484375 276.726562 174.167969 276.566406 174.828125 C 276.417969 175.488281 276.167969 176.121094 275.878906 176.726562 C 275.582031 177.335938 275.238281 177.90625 274.832031 178.464844 C 274.753906 178.574219 274.601562 178.605469 274.488281 178.542969 L 274.464844 178.53125 C 274.371094 178.484375 274.214844 178.417969 274.074219 178.386719 C 273.925781 178.351562 273.777344 178.332031 273.625 178.324219 C 273.316406 178.304688 273.003906 178.34375 272.699219 178.414062 C 272.390625 178.484375 272.089844 178.597656 271.796875 178.738281 C 271.5 178.875 271.246094 179.042969 270.925781 179.222656 C 270.609375 179.390625 270.269531 179.519531 269.914062 179.578125 C 269.554688 179.632812 269.191406 179.621094 268.84375 179.546875 C 268.152344 179.382812 267.546875 178.984375 267.109375 178.464844 "/>
<path style=" stroke:none;fill-rule:nonzero;fill:rgb(46.669006%,60.389709%,50.19989%);fill-opacity:1;" d="M 265.261719 97.917969 C 265.96875 89.039062 261.292969 84.261719 261.292969 84.261719 C 261.292969 84.261719 255.296875 87.207031 253.023438 95.816406 C 251.042969 103.324219 257.726562 105.160156 257.726562 105.160156 C 257.726562 105.160156 264.640625 105.660156 265.261719 97.917969 "/>
<path style=" stroke:none;fill-rule:nonzero;fill:rgb(30.198669%,22.349548%,17.248535%);fill-opacity:1;" d="M 261.292969 84.261719 C 261.078125 86.015625 260.84375 87.769531 260.574219 89.515625 C 260.3125 91.261719 260.027344 93.003906 259.734375 94.75 C 259.433594 96.488281 259.125 98.226562 258.792969 99.964844 C 258.46875 101.703125 258.113281 103.429688 257.726562 105.160156 C 257.941406 103.402344 258.175781 101.652344 258.441406 99.902344 C 258.703125 98.15625 258.992188 96.414062 259.285156 94.671875 C 259.585938 92.929688 259.890625 91.191406 260.222656 89.453125 C 260.550781 87.71875 260.90625 85.988281 261.292969 84.261719 "/>
<path style=" stroke:none;fill-rule:nonzero;fill:rgb(30.198669%,22.349548%,17.248535%);fill-opacity:1;" d="M 258.386719 88.207031 C 258.546875 88.871094 258.761719 89.507812 259.050781 90.097656 C 259.34375 90.6875 259.722656 91.226562 260.21875 91.617188 L 259.890625 91.664062 C 260.125 91.316406 260.386719 91.015625 260.6875 90.726562 C 260.839844 90.582031 261 90.449219 261.1875 90.335938 C 261.28125 90.28125 261.378906 90.226562 261.488281 90.1875 C 261.605469 90.144531 261.691406 90.128906 261.757812 90.097656 C 262.078125 89.960938 262.378906 89.699219 262.664062 89.441406 C 262.949219 89.179688 263.226562 88.894531 263.492188 88.597656 C 263.316406 88.957031 263.089844 89.289062 262.839844 89.609375 C 262.582031 89.917969 262.3125 90.222656 261.917969 90.4375 C 261.808594 90.5 261.699219 90.527344 261.632812 90.558594 C 261.558594 90.589844 261.484375 90.636719 261.410156 90.683594 C 261.265625 90.785156 261.128906 90.914062 260.992188 91.042969 C 260.726562 91.304688 260.488281 91.617188 260.265625 91.917969 L 260.121094 92.117188 L 259.941406 91.96875 C 259.375 91.511719 258.984375 90.882812 258.742188 90.234375 C 258.617188 89.910156 258.53125 89.570312 258.46875 89.230469 C 258.410156 88.890625 258.375 88.546875 258.386719 88.207031 "/>
<path style=" stroke:none;fill-rule:nonzero;fill:rgb(30.198669%,22.349548%,17.248535%);fill-opacity:1;" d="M 255.332031 99.015625 C 255.722656 99.089844 256.089844 99.269531 256.425781 99.492188 C 256.761719 99.722656 257.066406 99.992188 257.328125 100.304688 C 257.859375 100.925781 258.226562 101.671875 258.46875 102.449219 L 258.054688 102.410156 C 258.179688 102.175781 258.320312 101.992188 258.488281 101.816406 C 258.660156 101.640625 258.855469 101.488281 259.070312 101.367188 C 259.28125 101.242188 259.519531 101.15625 259.765625 101.113281 C 259.886719 101.089844 260.007812 101.078125 260.132812 101.082031 C 260.253906 101.074219 260.378906 101.089844 260.480469 101.097656 C 260.898438 101.128906 261.328125 101.078125 261.6875 100.867188 C 262.046875 100.660156 262.28125 100.265625 262.433594 99.835938 C 262.402344 100.0625 262.363281 100.292969 262.261719 100.507812 C 262.164062 100.71875 262.015625 100.917969 261.828125 101.066406 C 261.441406 101.378906 260.9375 101.480469 260.46875 101.480469 C 260.347656 101.480469 260.246094 101.476562 260.144531 101.480469 C 260.042969 101.484375 259.941406 101.5 259.847656 101.523438 C 259.648438 101.570312 259.464844 101.648438 259.289062 101.753906 C 258.949219 101.949219 258.648438 102.28125 258.453125 102.617188 L 258.183594 103.074219 L 258.035156 102.578125 C 257.820312 101.84375 257.507812 101.136719 257.066406 100.515625 C 256.84375 100.207031 256.59375 99.914062 256.300781 99.65625 C 256.011719 99.402344 255.691406 99.175781 255.332031 99.015625 "/>
<path style=" stroke:none;fill-rule:nonzero;fill:rgb(30.198669%,22.349548%,17.248535%);fill-opacity:1;" d="M 264.191406 94.710938 C 263.671875 94.628906 263.15625 94.738281 262.679688 94.910156 C 262.203125 95.085938 261.761719 95.351562 261.351562 95.648438 C 260.9375 95.953125 260.5625 96.296875 260.207031 96.664062 C 259.855469 97.039062 259.519531 97.425781 259.210938 97.835938 L 259.019531 98.082031 L 258.839844 97.8125 C 258.558594 97.390625 258.183594 96.972656 257.792969 96.597656 C 257.394531 96.222656 256.984375 95.882812 256.53125 95.550781 C 256.066406 95.175781 255.714844 94.671875 255.546875 94.113281 C 255.375 93.554688 255.378906 92.972656 255.484375 92.421875 C 255.488281 92.984375 255.5625 93.535156 255.78125 94.03125 C 255.988281 94.519531 256.332031 94.945312 256.761719 95.238281 C 257.214844 95.546875 257.683594 95.886719 258.097656 96.273438 C 258.511719 96.667969 258.902344 97.074219 259.222656 97.582031 L 258.859375 97.558594 C 259.183594 97.144531 259.53125 96.738281 259.914062 96.371094 C 260.292969 95.996094 260.707031 95.65625 261.160156 95.371094 C 261.609375 95.082031 262.101562 94.847656 262.617188 94.714844 C 263.132812 94.585938 263.6875 94.535156 264.191406 94.710938 "/>
<path style=" stroke:none;fill-rule:nonzero;fill:rgb(69.40918%,66.668701%,55.288696%);fill-opacity:1;" d="M 87.667969 157.71875 C 90.957031 157.53125 93.585938 158.457031 94.738281 161.894531 C 86.992188 185.3125 86.457031 208.445312 96.953125 231.355469 C 99.574219 237.078125 103.414062 241.863281 106.703125 247.074219 C 108.085938 249.261719 111.902344 251.644531 108.253906 254.421875 C 105.175781 256.765625 102.683594 253.699219 100.90625 251.601562 C 87.082031 235.265625 81.175781 216.023438 80.402344 194.875 C 79.925781 181.882812 84.113281 169.878906 87.667969 157.71875 "/>
<g clip-path="url(#clip6)" clip-rule="nonzero">
<path style=" stroke:none;fill-rule:nonzero;fill:rgb(86.669922%,60.778809%,25.489807%);fill-opacity:1;" d="M 100.867188 124.6875 C 108.0625 125.636719 109.492188 131.585938 109.46875 137.273438 C 108.292969 143.890625 104.617188 146.582031 98.910156 145.335938 C 92.96875 144.039062 90.171875 139.65625 91.203125 133.710938 C 92.097656 128.566406 95.097656 123.921875 100.867188 124.6875 Z M 100.867188 124.6875 C 108.0625 125.636719 109.492188 131.585938 109.46875 137.273438 C 108.292969 143.890625 104.617188 146.582031 98.910156 145.335938 C 92.96875 144.039062 90.171875 139.65625 91.203125 133.710938 C 92.097656 128.566406 95.097656 123.921875 100.867188 124.6875 Z M 38.984375 133.867188 C 43.53125 145.808594 53.53125 151.675781 65.160156 155.226562 C 69.765625 158.96875 74.851562 159.886719 80.464844 157.882812 C 82.851562 157.824219 85.261719 157.773438 87.667969 157.71875 C 90.957031 157.53125 93.585938 158.457031 94.738281 161.894531 C 98.082031 162.292969 98.253906 162.257812 99.175781 166.511719 C 102.28125 180.851562 108.222656 193.621094 119 203.871094 C 123.78125 208.421875 129.351562 210.460938 135.894531 209.902344 C 153.230469 208.425781 162.464844 188.5 152.667969 172.773438 C 144.457031 159.589844 133.53125 149.238281 115.988281 144.214844 C 124.378906 141.890625 130.359375 139.871094 136.496094 138.605469 C 150.574219 135.707031 159.527344 127.164062 164.371094 113.960938 C 168.625 102.371094 162.105469 92.347656 149.695312 92.570312 C 137.398438 92.792969 125.964844 96.414062 117.105469 105.777344 C 114.542969 108.484375 111.992188 111.207031 108.171875 115.269531 C 108.457031 102.617188 108.230469 92.3125 106.136719 82.058594 C 104.058594 71.902344 96.101562 63.027344 87.980469 63.015625 C 80.636719 63 75.511719 69.550781 73.796875 81.3125 C 73.46875 83.558594 73.496094 85.859375 73.339844 88.132812 C 72.777344 96.40625 74.359375 104.21875 77.644531 111.859375 C 78.664062 114.230469 80.484375 117.765625 77.679688 119.929688 C 75.410156 121.683594 72.714844 119.519531 70.476562 118.351562 C 65.222656 115.617188 59.886719 113.371094 53.832031 113.253906 C 41.164062 113.011719 34.4375 121.917969 38.984375 133.867188 "/>
</g>
<path style=" stroke:none;fill-rule:nonzero;fill:rgb(77.249146%,28.62854%,28.62854%);fill-opacity:1;" d="M 109.46875 137.273438 C 108.292969 143.890625 104.617188 146.582031 98.910156 145.335938 C 92.96875 144.039062 90.171875 139.65625 91.203125 133.710938 C 92.097656 128.566406 95.097656 123.921875 100.867188 124.6875 C 108.0625 125.636719 109.492188 131.585938 109.46875 137.273438 "/>
</g>
</svg>
