<?xml version="1.0" encoding="UTF-8"?>
<svg xmlns="http://www.w3.org/2000/svg" xmlns:xlink="http://www.w3.org/1999/xlink" width="375pt" height="374.999991pt" viewBox="0 0 375 374.999991" version="1.2">
<defs>
<clipPath id="clip1">
  <path d="M 58.105469 24 L 234 24 L 234 190 L 58.105469 190 Z M 58.105469 24 "/>
</clipPath>
</defs>
<g id="surface1">
<rect x="0" y="0" width="375" height="374.999991" style="fill:rgb(100%,100%,100%);fill-opacity:1;stroke:none;"/>
<rect x="0" y="0" width="375" height="374.999991" style="fill:rgb(100%,100%,100%);fill-opacity:1;stroke:none;"/>
<rect x="0" y="0" width="375" height="374.999991" style="fill:rgb(83.139038%,93.728638%,84.709167%);fill-opacity:1;stroke:none;"/>
<g clip-path="url(#clip1)" clip-rule="nonzero">
<path style=" stroke:none;fill-rule:nonzero;fill:rgb(36.079407%,56.858826%,23.139954%);fill-opacity:1;" d="M 194.074219 105.136719 C 191.601562 75.664062 213.429688 63.074219 213.429688 63.074219 C 184.890625 64.082031 169.769531 88.257812 169.769531 88.257812 C 163.0625 76.671875 178.210938 52.503906 189.121094 46.203125 C 160.589844 47.210938 156.378906 65.097656 156.378906 65.097656 C 142.972656 41.917969 147.191406 24.039062 147.191406 24.039062 C 137.191406 29.804688 131.429688 42.871094 128.089844 55.339844 L 107.410156 31.542969 C 105.359375 40.847656 108.8125 59.828125 112.523438 75.738281 C 85.269531 59.785156 59.863281 74.398438 59.863281 74.398438 C 95.101562 84.988281 108.484375 108.15625 108.484375 108.15625 C 108.484375 108.15625 73.261719 97.578125 58.113281 121.757812 C 81.28125 120.9375 98.257812 126.203125 110.355469 132.71875 C 99.980469 135.292969 82.296875 130.613281 71.503906 144.933594 C 71.503906 144.933594 100.035156 143.929688 105.859375 154.335938 C 86.484375 159.808594 73.964844 174.398438 73.964844 174.398438 C 113.414062 167.105469 155.355469 189.269531 155.355469 189.269531 L 209.941406 157.792969 C 200.761719 116.738281 233.511719 97.847656 233.511719 97.847656 C 209.210938 80.960938 194.074219 105.136719 194.074219 105.136719 Z M 194.074219 105.136719 "/>
</g>
<path style=" stroke:none;fill-rule:nonzero;fill:rgb(100%,67.449951%,19.999695%);fill-opacity:1;" d="M 295.050781 223.1875 C 317.246094 261.585938 305.917969 309.628906 269.742188 330.492188 C 233.566406 351.355469 186.25 337.140625 164.0625 298.75 L 149.886719 274.214844 C 127.691406 235.804688 139.027344 187.78125 175.195312 166.921875 C 211.371094 146.058594 258.6875 160.261719 280.875 198.664062 Z M 295.050781 223.1875 "/>
<path style=" stroke:none;fill-rule:nonzero;fill:rgb(100%,79.998779%,30.198669%);fill-opacity:1;" d="M 303.992188 245.324219 C 302.125 237.765625 299.171875 230.308594 295.050781 223.1875 L 293.390625 220.308594 L 293.390625 220.316406 L 275.988281 212.9375 L 281.554688 199.832031 L 280.882812 198.664062 C 262.820312 167.382812 228.070312 152.171875 196.257812 158.863281 L 188.960938 176.027344 L 172.152344 168.898438 C 142.890625 187.808594 131.410156 225.210938 143.050781 259.15625 L 152.027344 262.960938 L 148.449219 271.390625 C 148.941406 272.324219 149.359375 273.28125 149.902344 274.199219 L 164.078125 298.730469 C 170.191406 309.308594 178.265625 317.980469 187.433594 324.65625 L 189.476562 319.859375 L 206.882812 327.238281 L 203.992188 334.046875 C 209.925781 336.515625 216.097656 338.191406 222.378906 339.144531 L 224.296875 334.625 L 236.8125 339.929688 C 247.019531 339.5 257.15625 336.933594 266.636719 332.058594 L 266.484375 331.996094 L 273.871094 314.613281 L 284.480469 319.101562 C 289.136719 314.460938 293.160156 309.265625 296.378906 303.632812 L 281.277344 297.214844 L 288.664062 279.828125 L 303.535156 286.128906 C 305.238281 279.890625 306.222656 273.414062 306.355469 266.820312 L 296.050781 262.453125 L 303.4375 245.066406 Z M 248.570312 180.777344 L 265.96875 188.164062 L 258.582031 205.542969 L 241.175781 198.164062 Z M 251.195312 222.9375 L 243.808594 240.316406 L 226.402344 232.945312 L 233.789062 215.558594 Z M 213.753906 166.019531 L 231.15625 173.398438 L 223.761719 190.792969 L 206.355469 183.414062 Z M 198.980469 200.792969 L 216.382812 208.171875 L 208.996094 225.558594 L 191.601562 218.179688 Z M 164.167969 186.042969 L 181.566406 193.421875 L 174.179688 210.792969 L 156.78125 203.414062 Z M 142.007812 238.203125 L 149.394531 220.808594 L 166.800781 228.1875 L 159.40625 245.582031 Z M 179.441406 295.105469 L 162.035156 287.734375 L 169.421875 270.347656 L 186.828125 277.726562 Z M 176.808594 252.953125 L 184.207031 235.566406 L 201.609375 242.9375 L 194.214844 260.332031 Z M 214.242188 309.863281 L 196.847656 302.484375 L 204.234375 285.105469 L 221.628906 292.492188 Z M 211.621094 267.710938 L 219.007812 250.316406 L 236.414062 257.703125 L 229.027344 275.097656 Z M 249.0625 324.636719 L 231.65625 317.257812 L 239.042969 299.871094 L 256.449219 307.25 Z M 263.84375 289.847656 L 246.449219 282.476562 L 253.835938 265.082031 L 271.230469 272.460938 Z M 278.617188 255.082031 L 261.214844 247.703125 L 268.601562 230.324219 L 286.003906 237.695312 Z M 278.617188 255.082031 "/>
</g>
</svg>
