<?xml version="1.0" encoding="UTF-8"?>
<svg xmlns="http://www.w3.org/2000/svg" xmlns:xlink="http://www.w3.org/1999/xlink" width="375pt" height="374.999991pt" viewBox="0 0 375 374.999991" version="1.2">
<defs>
<clipPath id="clip1">
  <path d="M 183 19.703125 L 191 19.703125 L 191 72 L 183 72 Z M 183 19.703125 "/>
</clipPath>
<clipPath id="clip2">
  <path d="M 19.703125 183 L 71 183 L 71 191 L 19.703125 191 Z M 19.703125 183 "/>
</clipPath>
<clipPath id="clip3">
  <path d="M 183 303 L 191 303 L 191 354.613281 L 183 354.613281 Z M 183 303 "/>
</clipPath>
<clipPath id="clip4">
  <path d="M 303 183 L 354.613281 183 L 354.613281 191 L 303 191 Z M 303 183 "/>
</clipPath>
</defs>
<g id="surface1">
<rect x="0" y="0" width="375" height="374.999991" style="fill:rgb(100%,100%,100%);fill-opacity:1;stroke:none;"/>
<rect x="0" y="0" width="375" height="374.999991" style="fill:rgb(100%,100%,100%);fill-opacity:1;stroke:none;"/>
<rect x="0" y="0" width="375" height="374.999991" style="fill:rgb(85.879517%,93.728638%,100%);fill-opacity:1;stroke:none;"/>
<path style=" stroke:none;fill-rule:nonzero;fill:rgb(98.429871%,78.42865%,6.269836%);fill-opacity:1;" d="M 84.601562 187.15625 C 84.601562 130.546875 130.484375 84.65625 187.09375 84.65625 C 243.703125 84.65625 289.59375 130.546875 289.59375 187.15625 C 289.59375 243.757812 243.703125 289.648438 187.09375 289.648438 C 130.484375 289.648438 84.601562 243.757812 84.601562 187.15625 "/>
<path style=" stroke:none;fill-rule:nonzero;fill:rgb(96.859741%,87.449646%,94.509888%);fill-opacity:1;" d="M 187.09375 289.648438 C 187.070312 289.648438 187.050781 289.648438 187.015625 289.648438 C 187.042969 289.648438 187.070312 289.648438 187.09375 289.648438 C 243.703125 289.648438 289.59375 243.757812 289.59375 187.15625 C 289.59375 243.757812 243.703125 289.648438 187.09375 289.648438 M 186.996094 289.648438 C 186.980469 289.648438 186.960938 289.648438 186.941406 289.648438 C 186.964844 289.648438 186.980469 289.648438 186.996094 289.648438 M 186.921875 289.648438 C 186.894531 289.648438 186.875 289.648438 186.851562 289.648438 C 186.875 289.648438 186.894531 289.648438 186.921875 289.648438 M 186.84375 289.648438 C 186.824219 289.648438 186.792969 289.648438 186.773438 289.648438 C 186.792969 289.648438 186.820312 289.648438 186.84375 289.648438 M 186.746094 289.648438 C 186.730469 289.648438 186.710938 289.648438 186.691406 289.648438 C 186.714844 289.648438 186.730469 289.648438 186.746094 289.648438 M 186.671875 289.648438 C 186.652344 289.648438 186.632812 289.648438 186.605469 289.648438 C 186.632812 289.648438 186.652344 289.648438 186.671875 289.648438 M 186.59375 289.648438 C 186.574219 289.648438 186.542969 289.648438 186.523438 289.648438 C 186.542969 289.648438 186.570312 289.648438 186.59375 289.648438 M 186.5 289.648438 C 186.480469 289.648438 186.464844 289.648438 186.445312 289.648438 C 186.464844 289.648438 186.480469 289.648438 186.5 289.648438 M 186.414062 289.648438 C 186.402344 289.648438 186.382812 289.648438 186.371094 289.648438 C 186.390625 289.648438 186.402344 289.648438 186.414062 289.648438 M 186.34375 289.648438 C 186.320312 289.648438 186.300781 289.648438 186.273438 289.648438 C 186.292969 289.648438 186.324219 289.648438 186.34375 289.648438 M 186.25 289.648438 C 186.230469 289.648438 186.214844 289.648438 186.195312 289.648438 C 186.214844 289.648438 186.230469 289.648438 186.25 289.648438 M 186.164062 289.644531 C 186.152344 289.644531 186.140625 289.644531 186.125 289.644531 C 186.140625 289.644531 186.152344 289.644531 186.164062 289.644531 M 186.09375 289.644531 C 186.070312 289.644531 186.050781 289.644531 186.03125 289.644531 C 186.050781 289.644531 186.070312 289.644531 186.09375 289.644531 M 185.992188 289.644531 C 185.980469 289.644531 185.964844 289.644531 185.953125 289.644531 C 185.964844 289.644531 185.980469 289.644531 185.992188 289.644531 M 185.914062 289.644531 C 185.902344 289.644531 185.890625 289.644531 185.882812 289.644531 C 185.890625 289.644531 185.902344 289.644531 185.914062 289.644531 M 185.839844 289.644531 C 185.832031 289.644531 185.824219 289.644531 185.8125 289.644531 C 185.824219 289.644531 185.832031 289.644531 185.839844 289.644531 M 185.730469 289.644531 C 185.714844 289.644531 185.714844 289.644531 185.703125 289.644531 C 185.710938 289.644531 185.722656 289.644531 185.730469 289.644531 M 185.660156 289.644531 C 185.652344 289.644531 185.640625 289.644531 185.632812 289.644531 C 185.640625 289.644531 185.652344 289.644531 185.660156 289.644531 M 185.589844 289.636719 C 185.582031 289.636719 185.574219 289.636719 185.570312 289.636719 C 185.574219 289.636719 185.582031 289.636719 185.589844 289.636719 M 185.402344 289.636719 C 185.394531 289.636719 185.394531 289.636719 185.390625 289.636719 C 185.394531 289.636719 185.394531 289.636719 185.402344 289.636719 M 289.59375 187.15625 C 289.59375 187.128906 289.59375 187.105469 289.59375 187.078125 C 289.59375 187.105469 289.59375 187.125 289.59375 187.15625 M 289.59375 187.058594 C 289.59375 187.035156 289.59375 187.019531 289.59375 187 C 289.59375 187.019531 289.59375 187.039062 289.59375 187.058594 M 289.59375 186.984375 C 289.59375 186.957031 289.59375 186.929688 289.59375 186.90625 C 289.59375 186.929688 289.59375 186.957031 289.59375 186.984375 M 289.59375 186.886719 C 289.59375 186.875 289.59375 186.847656 289.59375 186.835938 C 289.59375 186.855469 289.59375 186.867188 289.59375 186.886719 M 289.59375 186.804688 C 289.59375 186.789062 289.59375 186.777344 289.59375 186.765625 C 289.59375 186.777344 289.59375 186.789062 289.59375 186.804688 M 289.59375 186.714844 C 289.59375 186.695312 289.59375 186.6875 289.59375 186.667969 C 289.59375 186.679688 289.59375 186.699219 289.59375 186.714844 M 289.589844 186.625 C 289.589844 186.617188 289.589844 186.609375 289.589844 186.605469 C 289.589844 186.609375 289.589844 186.617188 289.589844 186.625 "/>
<path style=" stroke:none;fill-rule:nonzero;fill:rgb(94.509888%,68.238831%,5.099487%);fill-opacity:1;" d="M 187.09375 289.648438 C 187.070312 289.648438 187.042969 289.648438 187.015625 289.648438 C 187.015625 289.648438 187.003906 289.648438 186.996094 289.648438 C 186.980469 289.648438 186.964844 289.648438 186.941406 289.648438 C 186.933594 289.648438 186.925781 289.648438 186.921875 289.648438 C 186.894531 289.648438 186.875 289.648438 186.851562 289.648438 C 186.851562 289.648438 186.851562 289.648438 186.84375 289.648438 C 186.820312 289.648438 186.792969 289.648438 186.773438 289.648438 C 186.765625 289.648438 186.753906 289.648438 186.746094 289.648438 C 186.730469 289.648438 186.714844 289.648438 186.691406 289.648438 C 186.683594 289.648438 186.675781 289.648438 186.671875 289.648438 C 186.652344 289.648438 186.632812 289.648438 186.605469 289.648438 C 186.605469 289.648438 186.601562 289.648438 186.59375 289.648438 C 186.570312 289.648438 186.542969 289.648438 186.523438 289.648438 C 186.511719 289.648438 186.503906 289.648438 186.5 289.648438 C 186.480469 289.648438 186.464844 289.648438 186.445312 289.648438 C 186.441406 289.648438 186.425781 289.648438 186.414062 289.648438 C 186.402344 289.648438 186.390625 289.648438 186.371094 289.648438 C 186.363281 289.648438 186.351562 289.648438 186.34375 289.648438 C 186.324219 289.648438 186.292969 289.648438 186.273438 289.648438 C 186.261719 289.648438 186.253906 289.648438 186.25 289.648438 C 186.230469 289.648438 186.214844 289.648438 186.195312 289.648438 C 186.191406 289.644531 186.179688 289.644531 186.164062 289.644531 C 186.152344 289.644531 186.140625 289.644531 186.125 289.644531 C 186.113281 289.644531 186.101562 289.644531 186.09375 289.644531 C 186.070312 289.644531 186.050781 289.644531 186.03125 289.644531 C 186.019531 289.644531 186.003906 289.644531 185.992188 289.644531 C 185.980469 289.644531 185.964844 289.644531 185.953125 289.644531 C 185.941406 289.644531 185.929688 289.644531 185.914062 289.644531 C 185.902344 289.644531 185.890625 289.644531 185.882812 289.644531 C 185.863281 289.644531 185.851562 289.644531 185.839844 289.644531 C 185.832031 289.644531 185.824219 289.644531 185.8125 289.644531 C 185.78125 289.644531 185.753906 289.644531 185.730469 289.644531 C 185.722656 289.644531 185.710938 289.644531 185.703125 289.644531 C 185.691406 289.644531 185.679688 289.644531 185.660156 289.644531 C 185.652344 289.644531 185.640625 289.644531 185.632812 289.644531 C 185.621094 289.636719 185.609375 289.636719 185.589844 289.636719 C 185.582031 289.636719 185.574219 289.636719 185.570312 289.636719 C 185.519531 289.636719 185.453125 289.636719 185.402344 289.636719 C 185.394531 289.636719 185.394531 289.636719 185.390625 289.636719 C 185.371094 289.636719 185.351562 289.636719 185.332031 289.636719 C 143.035156 288.917969 106.996094 262.574219 92.03125 225.46875 C 110.285156 253.695312 142.015625 272.394531 178.136719 272.394531 C 234.746094 272.394531 280.632812 226.503906 280.632812 169.894531 C 280.632812 156.347656 277.980469 143.421875 273.199219 131.582031 C 283.464844 147.453125 289.484375 166.320312 289.589844 186.605469 C 289.589844 186.609375 289.589844 186.617188 289.589844 186.625 C 289.589844 186.636719 289.59375 186.65625 289.59375 186.667969 C 289.59375 186.6875 289.59375 186.695312 289.59375 186.714844 C 289.59375 186.734375 289.59375 186.746094 289.59375 186.765625 C 289.59375 186.777344 289.59375 186.789062 289.59375 186.804688 C 289.59375 186.816406 289.59375 186.828125 289.59375 186.835938 C 289.59375 186.847656 289.59375 186.875 289.59375 186.886719 C 289.59375 186.894531 289.59375 186.898438 289.59375 186.90625 C 289.59375 186.929688 289.59375 186.957031 289.59375 186.984375 C 289.59375 186.988281 289.59375 186.996094 289.59375 187 C 289.59375 187.019531 289.59375 187.035156 289.59375 187.058594 C 289.59375 187.066406 289.59375 187.070312 289.59375 187.078125 C 289.59375 187.105469 289.59375 187.128906 289.59375 187.15625 C 289.59375 243.757812 243.703125 289.648438 187.09375 289.648438 "/>
<path style=" stroke:none;fill-rule:nonzero;fill:rgb(36.079407%,21.179199%,23.529053%);fill-opacity:1;" d="M 230.761719 146.144531 C 229.011719 146.144531 227.601562 147.554688 227.601562 149.304688 L 227.601562 149.394531 C 227.601562 152.585938 225.003906 155.1875 221.632812 155.1875 C 218.441406 155.1875 215.847656 152.585938 215.847656 149.394531 L 215.847656 149.304688 C 215.847656 147.554688 214.429688 146.144531 212.6875 146.144531 C 210.941406 146.144531 209.53125 147.554688 209.53125 149.304688 L 209.53125 149.394531 C 209.53125 156.070312 214.957031 161.496094 221.8125 161.496094 C 228.488281 161.496094 233.921875 156.070312 233.921875 149.394531 L 233.921875 149.304688 C 233.921875 147.554688 232.503906 146.144531 230.761719 146.144531 "/>
<path style=" stroke:none;fill-rule:nonzero;fill:rgb(36.079407%,21.179199%,23.529053%);fill-opacity:1;" d="M 148.582031 146.144531 C 146.835938 146.144531 145.425781 147.554688 145.425781 149.304688 L 145.425781 149.394531 C 145.425781 152.585938 142.832031 155.1875 139.453125 155.1875 C 136.261719 155.1875 133.667969 152.585938 133.667969 149.394531 L 133.667969 149.304688 C 133.667969 147.554688 132.257812 146.144531 130.511719 146.144531 C 128.769531 146.144531 127.351562 147.554688 127.351562 149.304688 L 127.351562 149.394531 C 127.351562 156.070312 132.785156 161.496094 139.640625 161.496094 C 146.316406 161.496094 151.742188 156.070312 151.742188 149.394531 L 151.742188 149.304688 C 151.742188 147.554688 150.324219 146.144531 148.582031 146.144531 "/>
<path style=" stroke:none;fill-rule:nonzero;fill:rgb(94.509888%,68.238831%,5.099487%);fill-opacity:1;" d="M 133.007812 178.191406 C 125.71875 178.191406 119.8125 174.886719 119.8125 170.820312 C 119.8125 166.738281 125.71875 163.4375 133.007812 163.4375 C 140.292969 163.4375 146.199219 166.738281 146.199219 170.820312 C 146.199219 174.886719 140.292969 178.191406 133.007812 178.191406 "/>
<path style=" stroke:none;fill-rule:nonzero;fill:rgb(94.509888%,68.238831%,5.099487%);fill-opacity:1;" d="M 225.316406 178.191406 C 218.027344 178.191406 212.117188 174.886719 212.117188 170.820312 C 212.117188 166.738281 218.027344 163.4375 225.316406 163.4375 C 232.601562 163.4375 238.515625 166.738281 238.515625 170.820312 C 238.515625 174.886719 232.601562 178.191406 225.316406 178.191406 "/>
<path style=" stroke:none;fill-rule:nonzero;fill:rgb(36.079407%,21.179199%,23.529053%);fill-opacity:1;" d="M 178.226562 188.917969 C 176.996094 188.917969 175.792969 188.738281 174.652344 188.386719 C 169.878906 187.007812 165.605469 182.800781 162.351562 176.230469 C 161.738281 174.988281 161.167969 173.664062 160.648438 172.292969 C 160.011719 170.625 160.859375 168.761719 162.523438 168.132812 C 164.183594 167.507812 166.054688 168.34375 166.683594 170.011719 C 167.125 171.191406 167.609375 172.324219 168.136719 173.375 C 170.527344 178.199219 173.492188 181.339844 176.496094 182.203125 C 177.503906 182.511719 178.515625 182.535156 179.46875 182.332031 C 179.9375 182.234375 180.335938 182.113281 180.71875 181.953125 C 184.042969 180.5625 187.285156 176.375 189.605469 170.460938 C 190.257812 168.800781 192.128906 167.988281 193.789062 168.640625 C 195.449219 169.289062 196.261719 171.164062 195.613281 172.816406 C 192.566406 180.5625 188.277344 185.777344 183.210938 187.90625 C 182.4375 188.230469 181.621094 188.476562 180.796875 188.648438 C 179.996094 188.820312 179.117188 188.917969 178.226562 188.917969 "/>
<g clip-path="url(#clip1)" clip-rule="nonzero">
<path style=" stroke:none;fill-rule:nonzero;fill:rgb(98.429871%,78.42865%,6.269836%);fill-opacity:1;" d="M 187.09375 71.003906 C 185.3125 71.003906 183.871094 69.554688 183.871094 67.773438 L 183.871094 22.933594 C 183.871094 21.144531 185.3125 19.703125 187.09375 19.703125 C 188.875 19.703125 190.324219 21.144531 190.324219 22.933594 L 190.324219 67.773438 C 190.324219 69.554688 188.875 71.003906 187.09375 71.003906 "/>
</g>
<path style=" stroke:none;fill-rule:nonzero;fill:rgb(98.429871%,78.42865%,6.269836%);fill-opacity:1;" d="M 127.410156 86.992188 C 126.292969 86.992188 125.210938 86.417969 124.617188 85.386719 L 102.191406 46.542969 C 101.300781 45.003906 101.828125 43.03125 103.371094 42.140625 C 104.914062 41.242188 106.890625 41.773438 107.78125 43.320312 L 130.203125 82.15625 C 131.09375 83.699219 130.5625 85.671875 129.023438 86.5625 C 128.511719 86.851562 127.960938 86.992188 127.410156 86.992188 "/>
<path style=" stroke:none;fill-rule:nonzero;fill:rgb(98.429871%,78.42865%,6.269836%);fill-opacity:1;" d="M 83.710938 130.695312 C 83.164062 130.695312 82.609375 130.550781 82.101562 130.257812 L 43.265625 107.835938 C 41.71875 106.945312 41.195312 104.96875 42.078125 103.425781 C 42.96875 101.882812 44.941406 101.355469 46.488281 102.246094 L 85.324219 124.671875 C 86.867188 125.5625 87.394531 127.535156 86.507812 129.078125 C 85.914062 130.109375 84.824219 130.695312 83.710938 130.695312 "/>
<g clip-path="url(#clip2)" clip-rule="nonzero">
<path style=" stroke:none;fill-rule:nonzero;fill:rgb(98.429871%,78.42865%,6.269836%);fill-opacity:1;" d="M 67.71875 190.378906 L 22.871094 190.378906 C 21.089844 190.378906 19.648438 188.9375 19.648438 187.15625 C 19.648438 185.375 21.089844 183.925781 22.871094 183.925781 L 67.71875 183.925781 C 69.5 183.925781 70.949219 185.375 70.949219 187.15625 C 70.949219 188.9375 69.5 190.378906 67.71875 190.378906 "/>
</g>
<path style=" stroke:none;fill-rule:nonzero;fill:rgb(98.429871%,78.42865%,6.269836%);fill-opacity:1;" d="M 44.878906 272.492188 C 43.765625 272.492188 42.675781 271.910156 42.078125 270.878906 C 41.195312 269.335938 41.71875 267.359375 43.265625 266.46875 L 82.101562 244.046875 C 83.640625 243.15625 85.613281 243.679688 86.507812 245.226562 C 87.394531 246.769531 86.867188 248.742188 85.324219 249.632812 L 46.488281 272.058594 C 45.980469 272.351562 45.421875 272.492188 44.878906 272.492188 "/>
<path style=" stroke:none;fill-rule:nonzero;fill:rgb(98.429871%,78.42865%,6.269836%);fill-opacity:1;" d="M 104.980469 332.601562 C 104.433594 332.601562 103.878906 332.460938 103.371094 332.164062 C 101.828125 331.273438 101.300781 329.308594 102.191406 327.761719 L 124.617188 288.917969 C 125.507812 287.382812 127.480469 286.851562 129.023438 287.746094 C 130.5625 288.632812 131.09375 290.605469 130.203125 292.148438 L 107.78125 330.984375 C 107.183594 332.015625 106.09375 332.601562 104.980469 332.601562 "/>
<g clip-path="url(#clip3)" clip-rule="nonzero">
<path style=" stroke:none;fill-rule:nonzero;fill:rgb(98.429871%,78.42865%,6.269836%);fill-opacity:1;" d="M 187.09375 354.601562 C 185.3125 354.601562 183.871094 353.160156 183.871094 351.378906 L 183.871094 306.53125 C 183.871094 304.742188 185.3125 303.300781 187.09375 303.300781 C 188.875 303.300781 190.324219 304.742188 190.324219 306.53125 L 190.324219 351.378906 C 190.324219 353.160156 188.875 354.601562 187.09375 354.601562 "/>
</g>
<path style=" stroke:none;fill-rule:nonzero;fill:rgb(98.429871%,78.42865%,6.269836%);fill-opacity:1;" d="M 269.207031 332.601562 C 268.101562 332.601562 267.011719 332.023438 266.414062 330.984375 L 243.992188 292.148438 C 243.101562 290.605469 243.625 288.632812 245.171875 287.746094 C 246.707031 286.851562 248.6875 287.382812 249.578125 288.917969 L 272 327.761719 C 272.890625 329.308594 272.359375 331.273438 270.824219 332.164062 C 270.308594 332.460938 269.757812 332.601562 269.207031 332.601562 "/>
<path style=" stroke:none;fill-rule:nonzero;fill:rgb(98.429871%,78.42865%,6.269836%);fill-opacity:1;" d="M 329.316406 272.492188 C 328.765625 272.492188 328.214844 272.351562 327.707031 272.058594 L 288.863281 249.632812 C 287.320312 248.742188 286.792969 246.769531 287.683594 245.226562 C 288.574219 243.679688 290.550781 243.15625 292.09375 244.046875 L 330.929688 266.46875 C 332.472656 267.359375 333 269.335938 332.109375 270.878906 C 331.511719 271.910156 330.429688 272.492188 329.316406 272.492188 "/>
<g clip-path="url(#clip4)" clip-rule="nonzero">
<path style=" stroke:none;fill-rule:nonzero;fill:rgb(98.429871%,78.42865%,6.269836%);fill-opacity:1;" d="M 351.316406 190.378906 L 306.46875 190.378906 C 304.6875 190.378906 303.246094 188.9375 303.246094 187.15625 C 303.246094 185.375 304.6875 183.925781 306.46875 183.925781 L 351.316406 183.925781 C 353.097656 183.925781 354.546875 185.375 354.546875 187.15625 C 354.546875 188.9375 353.097656 190.378906 351.316406 190.378906 "/>
</g>
<path style=" stroke:none;fill-rule:nonzero;fill:rgb(98.429871%,78.42865%,6.269836%);fill-opacity:1;" d="M 290.480469 130.695312 C 289.371094 130.695312 288.28125 130.109375 287.683594 129.078125 C 286.792969 127.535156 287.320312 125.5625 288.863281 124.671875 L 327.707031 102.246094 C 329.246094 101.355469 331.21875 101.882812 332.109375 103.425781 C 333 104.96875 332.472656 106.945312 330.929688 107.835938 L 292.09375 130.257812 C 291.582031 130.550781 291.03125 130.695312 290.480469 130.695312 "/>
<path style=" stroke:none;fill-rule:nonzero;fill:rgb(98.429871%,78.42865%,6.269836%);fill-opacity:1;" d="M 246.785156 86.992188 C 246.234375 86.992188 245.675781 86.851562 245.171875 86.5625 C 243.625 85.671875 243.101562 83.699219 243.992188 82.15625 L 266.414062 43.320312 C 267.304688 41.773438 269.277344 41.242188 270.824219 42.140625 C 272.359375 43.03125 272.890625 45.003906 272 46.542969 L 249.578125 85.386719 C 248.984375 86.417969 247.894531 86.992188 246.785156 86.992188 "/>
</g>
</svg>
